<svg xmlns="http://www.w3.org/2000/svg" xmlns:xlink="http://www.w3.org/1999/xlink" width="500" zoomAndPan="magnify" viewBox="0 0 375 374.999991" height="500" preserveAspectRatio="xMidYMid meet" version="1.0"><defs><g/></defs><g fill="#ffffff" fill-opacity="1"><g transform="translate(156.479584, 205.417823)"><g><path d="M 0.359375 -6.421875 L 0.359375 -6.609375 L 3.625 -6.609375 C 4.175781 -6.609375 4.566406 -6.640625 4.796875 -6.703125 C 4.734375 -6.410156 4.703125 -6.007812 4.703125 -5.5 L 4.703125 -5.015625 L 4.453125 -5.015625 L 4.296875 -6.078125 C 4.285156 -6.234375 4.1875 -6.3125 4 -6.3125 L 1.859375 -6.3125 L 1.859375 -3.453125 L 3.9375 -3.453125 C 4 -3.453125 4.039062 -3.5 4.0625 -3.59375 L 4.109375 -4.25 L 4.296875 -4.25 L 4.296875 -2.359375 L 4.109375 -2.359375 L 4.0625 -3.015625 C 4.039062 -3.109375 4 -3.15625 3.9375 -3.15625 L 1.859375 -3.15625 L 1.859375 -0.328125 C 1.859375 -0.234375 1.910156 -0.1875 2.015625 -0.1875 L 2.921875 -0.1875 L 2.921875 0 L 0.359375 0 L 0.359375 -0.1875 L 0.859375 -0.1875 C 0.953125 -0.1875 1 -0.234375 1 -0.328125 L 1 -6.296875 C 1 -6.378906 0.953125 -6.421875 0.859375 -6.421875 Z M 0.359375 -6.421875 "/></g></g></g><g fill="#ffffff" fill-opacity="1"><g transform="translate(162.106377, 205.417823)"><g><path d="M 5.0625 -0.21875 C 5.164062 -0.21875 5.25 -0.257812 5.3125 -0.34375 C 5.382812 -0.4375 5.421875 -0.539062 5.421875 -0.65625 C 5.421875 -0.78125 5.410156 -0.894531 5.390625 -1 L 5.59375 -1.03125 C 5.613281 -0.925781 5.625 -0.8125 5.625 -0.6875 C 5.625 -0.4375 5.546875 -0.238281 5.390625 -0.09375 C 5.242188 0.0507812 5.054688 0.125 4.828125 0.125 C 4.234375 0.125 3.9375 -0.234375 3.9375 -0.953125 C 3.9375 -1.671875 3.84375 -2.195312 3.65625 -2.53125 C 3.476562 -2.875 3.109375 -3.046875 2.546875 -3.046875 L 1.859375 -3.046875 L 1.859375 -0.328125 C 1.859375 -0.234375 1.910156 -0.1875 2.015625 -0.1875 L 2.71875 -0.1875 L 2.71875 0 L 0.359375 0 L 0.359375 -0.1875 L 0.859375 -0.1875 C 0.953125 -0.1875 1 -0.234375 1 -0.328125 L 1 -6.296875 C 1 -6.378906 0.953125 -6.421875 0.859375 -6.421875 L 0.359375 -6.421875 L 0.359375 -6.609375 L 2.984375 -6.609375 C 3.566406 -6.609375 4.0625 -6.445312 4.46875 -6.125 C 4.882812 -5.800781 5.09375 -5.367188 5.09375 -4.828125 C 5.09375 -4.398438 4.957031 -4.035156 4.6875 -3.734375 C 4.414062 -3.441406 4.0625 -3.238281 3.625 -3.125 C 4.125 -2.957031 4.441406 -2.65625 4.578125 -2.21875 C 4.679688 -1.863281 4.734375 -1.441406 4.734375 -0.953125 C 4.734375 -0.460938 4.84375 -0.21875 5.0625 -0.21875 Z M 2.921875 -6.3125 L 1.859375 -6.3125 L 1.859375 -3.359375 L 2.921875 -3.359375 C 3.335938 -3.359375 3.660156 -3.503906 3.890625 -3.796875 C 4.128906 -4.085938 4.25 -4.429688 4.25 -4.828125 C 4.25 -5.234375 4.128906 -5.582031 3.890625 -5.875 C 3.660156 -6.164062 3.335938 -6.3125 2.921875 -6.3125 Z M 2.921875 -6.3125 "/></g></g></g><g fill="#ffffff" fill-opacity="1"><g transform="translate(168.393185, 205.417823)"><g><path d="M 0.359375 0 L 0.359375 -0.1875 L 0.859375 -0.1875 C 0.953125 -0.1875 1 -0.234375 1 -0.328125 L 1 -6.296875 C 1 -6.378906 0.953125 -6.421875 0.859375 -6.421875 L 0.359375 -6.421875 L 0.359375 -6.609375 L 3.6875 -6.609375 C 4.238281 -6.609375 4.628906 -6.640625 4.859375 -6.703125 C 4.796875 -6.410156 4.765625 -6.007812 4.765625 -5.5 L 4.765625 -5.015625 L 4.515625 -5.015625 L 4.359375 -6.078125 C 4.347656 -6.234375 4.25 -6.3125 4.0625 -6.3125 L 1.859375 -6.3125 L 1.859375 -3.453125 L 3.96875 -3.453125 C 4.050781 -3.453125 4.101562 -3.5 4.125 -3.59375 L 4.171875 -4.25 L 4.359375 -4.25 L 4.359375 -2.359375 L 4.171875 -2.359375 L 4.125 -3.015625 C 4.101562 -3.109375 4.050781 -3.15625 3.96875 -3.15625 L 1.859375 -3.15625 L 1.859375 -0.296875 L 4.21875 -0.296875 C 4.394531 -0.296875 4.492188 -0.375 4.515625 -0.53125 L 4.671875 -1.75 L 4.90625 -1.75 L 4.90625 -1.265625 C 4.90625 -0.640625 4.9375 -0.1875 5 0.09375 C 4.78125 0.03125 4.394531 0 3.84375 0 Z M 0.359375 0 "/></g></g></g><g fill="#ffffff" fill-opacity="1"><g transform="translate(174.543796, 205.417823)"><g><path d="M 0.359375 0 L 0.359375 -0.1875 L 0.859375 -0.1875 C 0.953125 -0.1875 1 -0.234375 1 -0.328125 L 1 -6.296875 C 1 -6.378906 0.953125 -6.421875 0.859375 -6.421875 L 0.359375 -6.421875 L 0.359375 -6.609375 L 3.6875 -6.609375 C 4.238281 -6.609375 4.628906 -6.640625 4.859375 -6.703125 C 4.796875 -6.410156 4.765625 -6.007812 4.765625 -5.5 L 4.765625 -5.015625 L 4.515625 -5.015625 L 4.359375 -6.078125 C 4.347656 -6.234375 4.25 -6.3125 4.0625 -6.3125 L 1.859375 -6.3125 L 1.859375 -3.453125 L 3.96875 -3.453125 C 4.050781 -3.453125 4.101562 -3.5 4.125 -3.59375 L 4.171875 -4.25 L 4.359375 -4.25 L 4.359375 -2.359375 L 4.171875 -2.359375 L 4.125 -3.015625 C 4.101562 -3.109375 4.050781 -3.15625 3.96875 -3.15625 L 1.859375 -3.15625 L 1.859375 -0.296875 L 4.21875 -0.296875 C 4.394531 -0.296875 4.492188 -0.375 4.515625 -0.53125 L 4.671875 -1.75 L 4.90625 -1.75 L 4.90625 -1.265625 C 4.90625 -0.640625 4.9375 -0.1875 5 0.09375 C 4.78125 0.03125 4.394531 0 3.84375 0 Z M 0.359375 0 "/></g></g></g><g fill="#ffffff" fill-opacity="1"><g transform="translate(180.694408, 205.417823)"><g><path d="M 0.359375 0 L 0.359375 -0.1875 L 0.859375 -0.1875 C 0.953125 -0.1875 1 -0.234375 1 -0.328125 L 1 -6.296875 C 1 -6.378906 0.953125 -6.421875 0.859375 -6.421875 L 0.359375 -6.421875 L 0.359375 -6.609375 L 2.5 -6.609375 L 2.5 -6.421875 L 2.015625 -6.421875 C 1.910156 -6.421875 1.859375 -6.378906 1.859375 -6.296875 L 1.859375 -0.296875 L 3.953125 -0.296875 C 4.128906 -0.296875 4.226562 -0.375 4.25 -0.53125 L 4.40625 -1.75 L 4.640625 -1.75 L 4.640625 -1.265625 C 4.640625 -0.640625 4.671875 -0.1875 4.734375 0.09375 C 4.515625 0.03125 4.128906 0 3.578125 0 Z M 0.359375 0 "/></g></g></g><g fill="#ffffff" fill-opacity="1"><g transform="translate(186.164051, 205.417823)"><g><path d="M 6.03125 0 L 3.890625 0 L 3.890625 -0.1875 L 4.578125 -0.1875 L 3.84375 -2.21875 L 1.53125 -2.21875 L 0.796875 -0.1875 L 1.484375 -0.1875 L 1.484375 0 L -0.109375 0 L -0.109375 -0.1875 L 0.28125 -0.1875 C 0.382812 -0.1875 0.453125 -0.234375 0.484375 -0.328125 L 2.78125 -6.609375 L 3.140625 -6.609375 L 5.453125 -0.328125 C 5.484375 -0.234375 5.550781 -0.1875 5.65625 -0.1875 L 6.03125 -0.1875 Z M 2.6875 -5.375 L 1.640625 -2.5 L 3.734375 -2.5 Z M 2.6875 -5.375 "/></g></g></g><g fill="#ffffff" fill-opacity="1"><g transform="translate(192.828011, 205.417823)"><g><path d="M 5.3125 0 L 1.359375 -5.84375 L 1.359375 -0.328125 C 1.359375 -0.234375 1.410156 -0.1875 1.515625 -0.1875 L 2 -0.1875 L 2 0 L 0.359375 0 L 0.359375 -0.1875 L 0.859375 -0.1875 C 0.953125 -0.1875 1 -0.234375 1 -0.328125 L 1 -6.296875 C 1 -6.378906 0.953125 -6.421875 0.859375 -6.421875 L 0.359375 -6.421875 L 0.359375 -6.609375 L 1.90625 -6.609375 L 5.28125 -1.609375 L 5.28125 -6.265625 C 5.28125 -6.367188 5.234375 -6.421875 5.140625 -6.421875 L 4.640625 -6.421875 L 4.640625 -6.609375 L 6.28125 -6.609375 L 6.28125 -6.421875 L 5.78125 -6.421875 C 5.6875 -6.421875 5.640625 -6.378906 5.640625 -6.296875 L 5.640625 0 Z M 5.3125 0 "/></g></g></g><g fill="#ffffff" fill-opacity="1"><g transform="translate(200.151998, 205.417823)"><g><path d="M 5.234375 0 L 5.21875 -0.140625 C 5.207031 -0.285156 5.148438 -0.359375 5.046875 -0.359375 C 4.992188 -0.359375 4.894531 -0.320312 4.75 -0.25 C 4.289062 0 3.832031 0.125 3.375 0.125 C 2.5 0.125 1.773438 -0.175781 1.203125 -0.78125 C 0.640625 -1.394531 0.359375 -2.234375 0.359375 -3.296875 C 0.359375 -4.359375 0.632812 -5.195312 1.1875 -5.8125 C 1.75 -6.425781 2.476562 -6.734375 3.375 -6.734375 C 3.832031 -6.734375 4.285156 -6.617188 4.734375 -6.390625 C 4.878906 -6.304688 4.984375 -6.265625 5.046875 -6.265625 C 5.148438 -6.265625 5.207031 -6.335938 5.21875 -6.484375 L 5.234375 -6.671875 L 5.4375 -6.671875 L 5.4375 -4.859375 L 5.25 -4.859375 C 5.175781 -5.390625 4.96875 -5.78125 4.625 -6.03125 C 4.289062 -6.289062 3.875 -6.421875 3.375 -6.421875 C 2.738281 -6.421875 2.226562 -6.140625 1.84375 -5.578125 C 1.457031 -5.023438 1.265625 -4.257812 1.265625 -3.28125 C 1.265625 -2.3125 1.457031 -1.550781 1.84375 -1 C 2.238281 -0.445312 2.75 -0.171875 3.375 -0.171875 C 3.875 -0.171875 4.289062 -0.296875 4.625 -0.546875 C 4.96875 -0.804688 5.175781 -1.207031 5.25 -1.75 L 5.4375 -1.75 L 5.4375 0 Z M 5.234375 0 "/></g></g></g><g fill="#ffffff" fill-opacity="1"><g transform="translate(206.78453, 205.417823)"><g><path d="M 0.359375 0 L 0.359375 -0.1875 L 0.859375 -0.1875 C 0.953125 -0.1875 1 -0.234375 1 -0.328125 L 1 -6.296875 C 1 -6.378906 0.953125 -6.421875 0.859375 -6.421875 L 0.359375 -6.421875 L 0.359375 -6.609375 L 3.6875 -6.609375 C 4.238281 -6.609375 4.628906 -6.640625 4.859375 -6.703125 C 4.796875 -6.410156 4.765625 -6.007812 4.765625 -5.5 L 4.765625 -5.015625 L 4.515625 -5.015625 L 4.359375 -6.078125 C 4.347656 -6.234375 4.25 -6.3125 4.0625 -6.3125 L 1.859375 -6.3125 L 1.859375 -3.453125 L 3.96875 -3.453125 C 4.050781 -3.453125 4.101562 -3.5 4.125 -3.59375 L 4.171875 -4.25 L 4.359375 -4.25 L 4.359375 -2.359375 L 4.171875 -2.359375 L 4.125 -3.015625 C 4.101562 -3.109375 4.050781 -3.15625 3.96875 -3.15625 L 1.859375 -3.15625 L 1.859375 -0.296875 L 4.21875 -0.296875 C 4.394531 -0.296875 4.492188 -0.375 4.515625 -0.53125 L 4.671875 -1.75 L 4.90625 -1.75 L 4.90625 -1.265625 C 4.90625 -0.640625 4.9375 -0.1875 5 0.09375 C 4.78125 0.03125 4.394531 0 3.84375 0 Z M 0.359375 0 "/></g></g></g><g fill="#ffffff" fill-opacity="1"><g transform="translate(212.935139, 205.417823)"><g><path d="M 5.0625 -0.21875 C 5.164062 -0.21875 5.25 -0.257812 5.3125 -0.34375 C 5.382812 -0.4375 5.421875 -0.539062 5.421875 -0.65625 C 5.421875 -0.78125 5.410156 -0.894531 5.390625 -1 L 5.59375 -1.03125 C 5.613281 -0.925781 5.625 -0.8125 5.625 -0.6875 C 5.625 -0.4375 5.546875 -0.238281 5.390625 -0.09375 C 5.242188 0.0507812 5.054688 0.125 4.828125 0.125 C 4.234375 0.125 3.9375 -0.234375 3.9375 -0.953125 C 3.9375 -1.671875 3.84375 -2.195312 3.65625 -2.53125 C 3.476562 -2.875 3.109375 -3.046875 2.546875 -3.046875 L 1.859375 -3.046875 L 1.859375 -0.328125 C 1.859375 -0.234375 1.910156 -0.1875 2.015625 -0.1875 L 2.71875 -0.1875 L 2.71875 0 L 0.359375 0 L 0.359375 -0.1875 L 0.859375 -0.1875 C 0.953125 -0.1875 1 -0.234375 1 -0.328125 L 1 -6.296875 C 1 -6.378906 0.953125 -6.421875 0.859375 -6.421875 L 0.359375 -6.421875 L 0.359375 -6.609375 L 2.984375 -6.609375 C 3.566406 -6.609375 4.0625 -6.445312 4.46875 -6.125 C 4.882812 -5.800781 5.09375 -5.367188 5.09375 -4.828125 C 5.09375 -4.398438 4.957031 -4.035156 4.6875 -3.734375 C 4.414062 -3.441406 4.0625 -3.238281 3.625 -3.125 C 4.125 -2.957031 4.441406 -2.65625 4.578125 -2.21875 C 4.679688 -1.863281 4.734375 -1.441406 4.734375 -0.953125 C 4.734375 -0.460938 4.84375 -0.21875 5.0625 -0.21875 Z M 2.921875 -6.3125 L 1.859375 -6.3125 L 1.859375 -3.359375 L 2.921875 -3.359375 C 3.335938 -3.359375 3.660156 -3.503906 3.890625 -3.796875 C 4.128906 -4.085938 4.25 -4.429688 4.25 -4.828125 C 4.25 -5.234375 4.128906 -5.582031 3.890625 -5.875 C 3.660156 -6.164062 3.335938 -6.3125 2.921875 -6.3125 Z M 2.921875 -6.3125 "/></g></g></g><g fill="#ffffff" fill-opacity="1"><g transform="translate(28.890339, 181.716742)"><g><path d="M 20.0625 -30.109375 C 20.96875 -30.109375 21.753906 -30.097656 22.421875 -30.078125 C 23.097656 -30.066406 23.707031 -30.046875 24.25 -30.015625 C 24.789062 -29.984375 25.289062 -29.957031 25.75 -29.9375 C 26.21875 -29.925781 26.707031 -29.921875 27.21875 -29.921875 C 27.695312 -29.921875 28.140625 -29.925781 28.546875 -29.9375 C 28.953125 -29.957031 29.378906 -29.984375 29.828125 -30.015625 C 30.285156 -30.046875 30.8125 -30.066406 31.40625 -30.078125 C 32.007812 -30.097656 32.757812 -30.109375 33.65625 -30.109375 L 33.65625 -29.296875 C 33.175781 -29.296875 32.71875 -29.253906 32.28125 -29.171875 C 31.851562 -29.097656 31.472656 -28.957031 31.140625 -28.75 C 30.804688 -28.539062 30.539062 -28.25 30.34375 -27.875 C 30.15625 -27.5 30.0625 -27 30.0625 -26.375 L 30.0625 -3.734375 C 30.0625 -3.109375 30.15625 -2.609375 30.34375 -2.234375 C 30.539062 -1.859375 30.804688 -1.5625 31.140625 -1.34375 C 31.472656 -1.132812 31.851562 -0.992188 32.28125 -0.921875 C 32.71875 -0.847656 33.175781 -0.8125 33.65625 -0.8125 L 33.65625 0 C 32.757812 0 32.007812 -0.015625 31.40625 -0.046875 C 30.8125 -0.078125 30.285156 -0.109375 29.828125 -0.140625 C 29.378906 -0.171875 28.953125 -0.195312 28.546875 -0.21875 C 28.140625 -0.25 27.695312 -0.265625 27.21875 -0.265625 C 26.707031 -0.265625 26.21875 -0.25 25.75 -0.21875 C 25.289062 -0.195312 24.789062 -0.171875 24.25 -0.140625 C 23.707031 -0.109375 23.097656 -0.078125 22.421875 -0.046875 C 21.753906 -0.015625 20.96875 0 20.0625 0 L 20.0625 -0.8125 C 20.550781 -0.8125 21.007812 -0.847656 21.4375 -0.921875 C 21.875 -0.992188 22.253906 -1.132812 22.578125 -1.34375 C 22.910156 -1.5625 23.175781 -1.859375 23.375 -2.234375 C 23.570312 -2.609375 23.671875 -3.109375 23.671875 -3.734375 L 23.671875 -14.8125 L 11.65625 -14.8125 L 11.65625 -3.734375 C 11.65625 -3.109375 11.75 -2.609375 11.9375 -2.234375 C 12.132812 -1.859375 12.398438 -1.5625 12.734375 -1.34375 C 13.066406 -1.132812 13.445312 -0.992188 13.875 -0.921875 C 14.3125 -0.847656 14.769531 -0.8125 15.25 -0.8125 L 15.25 0 C 14.351562 0 13.566406 -0.015625 12.890625 -0.046875 C 12.210938 -0.078125 11.601562 -0.109375 11.0625 -0.140625 C 10.53125 -0.171875 10.019531 -0.195312 9.53125 -0.21875 C 9.050781 -0.25 8.570312 -0.265625 8.09375 -0.265625 C 7.582031 -0.265625 7.132812 -0.25 6.75 -0.21875 C 6.363281 -0.195312 5.941406 -0.171875 5.484375 -0.140625 C 5.035156 -0.109375 4.507812 -0.078125 3.90625 -0.046875 C 3.3125 -0.015625 2.566406 0 1.671875 0 L 1.671875 -0.8125 C 2.148438 -0.8125 2.601562 -0.847656 3.03125 -0.921875 C 3.46875 -0.992188 3.851562 -1.132812 4.1875 -1.34375 C 4.519531 -1.5625 4.78125 -1.859375 4.96875 -2.234375 C 5.164062 -2.609375 5.265625 -3.109375 5.265625 -3.734375 L 5.265625 -26.375 C 5.265625 -27 5.164062 -27.5 4.96875 -27.875 C 4.78125 -28.25 4.519531 -28.539062 4.1875 -28.75 C 3.851562 -28.957031 3.46875 -29.097656 3.03125 -29.171875 C 2.601562 -29.253906 2.148438 -29.296875 1.671875 -29.296875 L 1.671875 -30.109375 C 2.566406 -30.109375 3.3125 -30.097656 3.90625 -30.078125 C 4.507812 -30.066406 5.035156 -30.046875 5.484375 -30.015625 C 5.941406 -29.984375 6.363281 -29.957031 6.75 -29.9375 C 7.132812 -29.925781 7.582031 -29.921875 8.09375 -29.921875 C 8.570312 -29.921875 9.050781 -29.925781 9.53125 -29.9375 C 10.019531 -29.957031 10.53125 -29.984375 11.0625 -30.015625 C 11.601562 -30.046875 12.210938 -30.066406 12.890625 -30.078125 C 13.566406 -30.097656 14.351562 -30.109375 15.25 -30.109375 L 15.25 -29.296875 C 14.769531 -29.296875 14.3125 -29.253906 13.875 -29.171875 C 13.445312 -29.097656 13.066406 -28.957031 12.734375 -28.75 C 12.398438 -28.539062 12.132812 -28.25 11.9375 -27.875 C 11.75 -27.5 11.65625 -27 11.65625 -26.375 L 11.65625 -16.0625 L 23.671875 -16.0625 L 23.671875 -26.375 C 23.671875 -27 23.570312 -27.5 23.375 -27.875 C 23.175781 -28.25 22.910156 -28.539062 22.578125 -28.75 C 22.253906 -28.957031 21.875 -29.097656 21.4375 -29.171875 C 21.007812 -29.253906 20.550781 -29.296875 20.0625 -29.296875 Z M 20.0625 -30.109375 "/></g></g></g><g fill="#ffffff" fill-opacity="1"><g transform="translate(61.335306, 181.716742)"><g><path d="M 0.21875 -30.109375 C 1.269531 -30.109375 2.160156 -30.097656 2.890625 -30.078125 C 3.628906 -30.066406 4.273438 -30.046875 4.828125 -30.015625 C 5.390625 -29.984375 5.894531 -29.957031 6.34375 -29.9375 C 6.789062 -29.925781 7.253906 -29.921875 7.734375 -29.921875 C 8.191406 -29.921875 8.597656 -29.925781 8.953125 -29.9375 C 9.316406 -29.957031 9.726562 -29.984375 10.1875 -30.015625 C 10.65625 -30.046875 11.210938 -30.066406 11.859375 -30.078125 C 12.503906 -30.097656 13.335938 -30.109375 14.359375 -30.109375 L 14.359375 -29.296875 C 13.960938 -29.296875 13.546875 -29.269531 13.109375 -29.21875 C 12.679688 -29.175781 12.285156 -29.078125 11.921875 -28.921875 C 11.566406 -28.773438 11.269531 -28.535156 11.03125 -28.203125 C 10.789062 -27.878906 10.671875 -27.445312 10.671875 -26.90625 C 10.671875 -26.601562 10.707031 -26.296875 10.78125 -25.984375 C 10.851562 -25.671875 10.9375 -25.378906 11.03125 -25.109375 L 16.65625 -8.28125 L 22.28125 -24.171875 C 21.945312 -25.179688 21.628906 -26.023438 21.328125 -26.703125 C 21.023438 -27.378906 20.707031 -27.90625 20.375 -28.28125 C 20.050781 -28.65625 19.671875 -28.914062 19.234375 -29.0625 C 18.796875 -29.21875 18.265625 -29.296875 17.640625 -29.296875 L 17.640625 -30.109375 C 18.722656 -30.109375 19.597656 -30.097656 20.265625 -30.078125 C 20.941406 -30.066406 21.515625 -30.046875 21.984375 -30.015625 C 22.453125 -29.984375 22.847656 -29.957031 23.171875 -29.9375 C 23.503906 -29.925781 23.878906 -29.921875 24.296875 -29.921875 C 24.691406 -29.921875 25.097656 -29.925781 25.515625 -29.9375 C 25.929688 -29.957031 26.414062 -29.984375 26.96875 -30.015625 C 27.53125 -30.046875 28.203125 -30.066406 28.984375 -30.078125 C 29.765625 -30.097656 30.738281 -30.109375 31.90625 -30.109375 L 31.90625 -29.296875 C 31.363281 -29.296875 30.84375 -29.265625 30.34375 -29.203125 C 29.851562 -29.140625 29.425781 -29.003906 29.0625 -28.796875 C 28.707031 -28.585938 28.425781 -28.285156 28.21875 -27.890625 C 28.007812 -27.503906 27.90625 -26.984375 27.90625 -26.328125 C 27.90625 -25.722656 27.992188 -25.097656 28.171875 -24.453125 C 28.347656 -23.804688 28.554688 -23.109375 28.796875 -22.359375 L 33.53125 -8.1875 L 38.828125 -24.484375 C 39.097656 -25.285156 39.234375 -25.957031 39.234375 -26.5 C 39.234375 -27.582031 38.910156 -28.300781 38.265625 -28.65625 C 37.628906 -29.019531 36.648438 -29.234375 35.328125 -29.296875 L 35.328125 -30.109375 C 36.046875 -30.109375 36.628906 -30.097656 37.078125 -30.078125 C 37.523438 -30.066406 37.90625 -30.050781 38.21875 -30.03125 C 38.539062 -30.019531 38.828125 -30.003906 39.078125 -29.984375 C 39.335938 -29.972656 39.660156 -29.96875 40.046875 -29.96875 C 40.410156 -29.96875 40.738281 -29.972656 41.03125 -29.984375 C 41.332031 -30.003906 41.65625 -30.019531 42 -30.03125 C 42.351562 -30.050781 42.757812 -30.066406 43.21875 -30.078125 C 43.6875 -30.097656 44.265625 -30.109375 44.953125 -30.109375 L 44.953125 -29.296875 C 44.265625 -29.296875 43.6875 -29.21875 43.21875 -29.0625 C 42.757812 -28.914062 42.363281 -28.6875 42.03125 -28.375 C 41.695312 -28.0625 41.410156 -27.65625 41.171875 -27.15625 C 40.929688 -26.664062 40.707031 -26.085938 40.5 -25.421875 L 32 0.71875 L 30.375 0.71875 L 22.953125 -22.09375 L 14.984375 0.71875 L 13.359375 0.71875 L 4.3125 -26.140625 C 3.894531 -27.367188 3.347656 -28.203125 2.671875 -28.640625 C 2.003906 -29.078125 1.1875 -29.296875 0.21875 -29.296875 Z M 0.21875 -30.109375 "/></g></g></g><g fill="#ffffff" fill-opacity="1"><g transform="translate(103.635262, 181.716742)"><g><path d="M 17.140625 -11.828125 L 8.640625 -11.828125 L 5.84375 -4.234375 C 5.757812 -3.960938 5.6875 -3.695312 5.625 -3.4375 C 5.5625 -3.1875 5.53125 -2.957031 5.53125 -2.75 C 5.53125 -2.320312 5.613281 -1.976562 5.78125 -1.71875 C 5.945312 -1.46875 6.164062 -1.273438 6.4375 -1.140625 C 6.707031 -1.003906 7.003906 -0.914062 7.328125 -0.875 C 7.660156 -0.832031 7.992188 -0.8125 8.328125 -0.8125 L 8.328125 0 C 7.691406 0 7.15625 -0.00390625 6.71875 -0.015625 C 6.289062 -0.0351562 5.910156 -0.0507812 5.578125 -0.0625 C 5.242188 -0.0820312 4.941406 -0.0976562 4.671875 -0.109375 C 4.410156 -0.128906 4.128906 -0.140625 3.828125 -0.140625 C 3.492188 -0.140625 3.210938 -0.128906 2.984375 -0.109375 C 2.765625 -0.0976562 2.519531 -0.0820312 2.25 -0.0625 C 1.976562 -0.0507812 1.644531 -0.0351562 1.25 -0.015625 C 0.863281 -0.00390625 0.375 0 -0.21875 0 L -0.21875 -0.8125 C 2.03125 -0.8125 3.570312 -1.9375 4.40625 -4.1875 L 14.359375 -30.6875 L 15.9375 -30.6875 L 26.453125 -4.234375 C 26.960938 -2.910156 27.539062 -2.007812 28.1875 -1.53125 C 28.832031 -1.050781 29.695312 -0.8125 30.78125 -0.8125 L 30.78125 0 C 29.882812 0 29.113281 -0.00390625 28.46875 -0.015625 C 27.820312 -0.0351562 27.242188 -0.0507812 26.734375 -0.0625 C 26.222656 -0.0820312 25.75 -0.0976562 25.3125 -0.109375 C 24.875 -0.128906 24.429688 -0.140625 23.984375 -0.140625 C 23.535156 -0.140625 23.125 -0.128906 22.75 -0.109375 C 22.375 -0.0976562 21.945312 -0.0820312 21.46875 -0.0625 C 20.988281 -0.0507812 20.429688 -0.0351562 19.796875 -0.015625 C 19.171875 -0.00390625 18.378906 0 17.421875 0 L 17.421875 -0.8125 C 17.773438 -0.8125 18.125 -0.832031 18.46875 -0.875 C 18.8125 -0.914062 19.117188 -1.003906 19.390625 -1.140625 C 19.660156 -1.273438 19.882812 -1.460938 20.0625 -1.703125 C 20.25 -1.941406 20.34375 -2.257812 20.34375 -2.65625 C 20.34375 -2.988281 20.296875 -3.3125 20.203125 -3.625 C 20.109375 -3.9375 20.003906 -4.242188 19.890625 -4.546875 Z M 9.140625 -13.09375 L 16.6875 -13.09375 L 12.875 -23.171875 Z M 9.140625 -13.09375 "/></g></g></g><g fill="#ffffff" fill-opacity="1"><g transform="translate(131.310227, 181.716742)"><g><path d="M 2.109375 -0.8125 C 2.585938 -0.8125 3.046875 -0.847656 3.484375 -0.921875 C 3.921875 -0.992188 4.300781 -1.132812 4.625 -1.34375 C 4.957031 -1.5625 5.222656 -1.859375 5.421875 -2.234375 C 5.617188 -2.609375 5.71875 -3.109375 5.71875 -3.734375 L 5.71875 -26.28125 L 4.71875 -27.546875 C 4.300781 -28.078125 3.84375 -28.5 3.34375 -28.8125 C 2.851562 -29.132812 2.21875 -29.296875 1.4375 -29.296875 L 1.4375 -30.109375 C 1.976562 -30.109375 2.441406 -30.097656 2.828125 -30.078125 C 3.222656 -30.066406 3.578125 -30.050781 3.890625 -30.03125 C 4.203125 -30.019531 4.484375 -30.003906 4.734375 -29.984375 C 4.992188 -29.972656 5.289062 -29.96875 5.625 -29.96875 C 6.226562 -29.96875 6.976562 -29.988281 7.875 -30.03125 C 8.769531 -30.082031 9.582031 -30.109375 10.3125 -30.109375 L 27.671875 -8.8125 L 27.671875 -26.375 C 27.671875 -27 27.570312 -27.5 27.375 -27.875 C 27.1875 -28.25 26.925781 -28.539062 26.59375 -28.75 C 26.257812 -28.957031 25.875 -29.097656 25.4375 -29.171875 C 25.007812 -29.253906 24.554688 -29.296875 24.078125 -29.296875 L 24.078125 -30.109375 C 24.671875 -30.109375 25.15625 -30.097656 25.53125 -30.078125 C 25.90625 -30.066406 26.226562 -30.050781 26.5 -30.03125 C 26.769531 -30.019531 27.023438 -30.003906 27.265625 -29.984375 C 27.503906 -29.972656 27.789062 -29.96875 28.125 -29.96875 C 28.457031 -29.96875 28.765625 -29.972656 29.046875 -29.984375 C 29.328125 -30.003906 29.625 -30.019531 29.9375 -30.03125 C 30.257812 -30.050781 30.628906 -30.066406 31.046875 -30.078125 C 31.472656 -30.097656 31.984375 -30.109375 32.578125 -30.109375 L 32.578125 -29.296875 C 32.097656 -29.296875 31.640625 -29.253906 31.203125 -29.171875 C 30.773438 -29.097656 30.394531 -28.957031 30.0625 -28.75 C 29.726562 -28.539062 29.460938 -28.25 29.265625 -27.875 C 29.078125 -27.5 28.984375 -27 28.984375 -26.375 L 28.984375 0.546875 L 27.578125 0.546875 L 7.015625 -24.890625 L 7.015625 -3.734375 C 7.015625 -3.109375 7.113281 -2.609375 7.3125 -2.234375 C 7.507812 -1.859375 7.769531 -1.5625 8.09375 -1.34375 C 8.425781 -1.132812 8.8125 -0.992188 9.25 -0.921875 C 9.6875 -0.847656 10.144531 -0.8125 10.625 -0.8125 L 10.625 0 C 10.019531 0 9.503906 -0.00390625 9.078125 -0.015625 C 8.660156 -0.0351562 8.285156 -0.0507812 7.953125 -0.0625 C 7.628906 -0.0820312 7.320312 -0.0976562 7.03125 -0.109375 C 6.75 -0.128906 6.445312 -0.140625 6.125 -0.140625 C 5.789062 -0.140625 5.503906 -0.128906 5.265625 -0.109375 C 5.023438 -0.0976562 4.769531 -0.0820312 4.5 -0.0625 C 4.226562 -0.0507812 3.910156 -0.0351562 3.546875 -0.015625 C 3.191406 -0.00390625 2.710938 0 2.109375 0 Z M 2.109375 -0.8125 "/></g></g></g><g fill="#ffffff" fill-opacity="1"><g transform="translate(162.450193, 181.716742)"><g><path d="M 2.875 -23.125 L 3.234375 -30.109375 C 4.078125 -30.140625 5.09375 -30.164062 6.28125 -30.1875 C 7.46875 -30.21875 8.476562 -30.234375 9.3125 -30.234375 C 11.019531 -30.234375 12.609375 -30.203125 14.078125 -30.140625 C 15.554688 -30.085938 17.148438 -30.0625 18.859375 -30.0625 C 19.847656 -30.0625 20.820312 -30.0625 21.78125 -30.0625 C 22.738281 -30.0625 23.695312 -30.078125 24.65625 -30.109375 L 8.90625 -1.34375 C 10.5625 -1.320312 11.953125 -1.300781 13.078125 -1.28125 C 14.203125 -1.269531 15.113281 -1.265625 15.8125 -1.265625 C 16.519531 -1.265625 17.03125 -1.265625 17.34375 -1.265625 C 17.65625 -1.265625 17.828125 -1.265625 17.859375 -1.265625 C 19.835938 -1.265625 21.328125 -1.816406 22.328125 -2.921875 C 23.335938 -4.035156 23.960938 -5.597656 24.203125 -7.609375 L 25.015625 -7.609375 L 24.609375 0 C 23.804688 0.03125 22.96875 0.046875 22.09375 0.046875 C 21.226562 0.046875 20.375 0.046875 19.53125 0.046875 C 18.507812 0.046875 17.40625 0.0351562 16.21875 0.015625 C 15.03125 0.00390625 13.859375 0 12.703125 0 C 11.554688 0 10.457031 -0.00390625 9.40625 -0.015625 C 8.351562 -0.0351562 7.453125 -0.046875 6.703125 -0.046875 C 6.347656 -0.046875 5.921875 -0.046875 5.421875 -0.046875 C 4.929688 -0.046875 4.429688 -0.0351562 3.921875 -0.015625 C 3.410156 -0.00390625 2.925781 0 2.46875 0 C 2.019531 0 1.644531 0 1.34375 0 L 17.140625 -28.84375 C 16.179688 -28.875 15.378906 -28.894531 14.734375 -28.90625 C 14.085938 -28.925781 13.53125 -28.941406 13.0625 -28.953125 C 12.601562 -28.972656 12.191406 -28.984375 11.828125 -28.984375 C 11.472656 -28.984375 11.097656 -28.984375 10.703125 -28.984375 C 10.015625 -28.984375 9.515625 -28.984375 9.203125 -28.984375 C 8.890625 -28.984375 8.507812 -28.953125 8.0625 -28.890625 C 7.394531 -28.828125 6.804688 -28.628906 6.296875 -28.296875 C 5.785156 -27.972656 5.347656 -27.546875 4.984375 -27.015625 C 4.628906 -26.492188 4.335938 -25.894531 4.109375 -25.21875 C 3.890625 -24.539062 3.75 -23.84375 3.6875 -23.125 Z M 2.875 -23.125 "/></g></g></g><g fill="#ffffff" fill-opacity="1"><g transform="translate(186.030171, 181.716742)"><g><path d="M 14.265625 -16.25 C 15.617188 -16.25 16.585938 -16.59375 17.171875 -17.28125 C 17.753906 -17.96875 18.046875 -18.925781 18.046875 -20.15625 L 18.859375 -20.15625 C 18.859375 -19.46875 18.847656 -18.882812 18.828125 -18.40625 C 18.816406 -17.925781 18.800781 -17.515625 18.78125 -17.171875 C 18.769531 -16.828125 18.753906 -16.535156 18.734375 -16.296875 C 18.722656 -16.054688 18.71875 -15.8125 18.71875 -15.5625 C 18.71875 -15.320312 18.722656 -15.085938 18.734375 -14.859375 C 18.753906 -14.640625 18.769531 -14.363281 18.78125 -14.03125 C 18.800781 -13.707031 18.816406 -13.3125 18.828125 -12.84375 C 18.847656 -12.382812 18.859375 -11.804688 18.859375 -11.109375 L 18.046875 -11.109375 C 18.046875 -12.285156 17.753906 -13.21875 17.171875 -13.90625 C 16.585938 -14.59375 15.617188 -14.9375 14.265625 -14.9375 L 11.65625 -14.9375 L 11.65625 -5.890625 C 11.65625 -4.816406 11.726562 -3.957031 11.875 -3.3125 C 12.03125 -2.664062 12.320312 -2.179688 12.75 -1.859375 C 13.1875 -1.546875 13.785156 -1.34375 14.546875 -1.25 C 15.316406 -1.164062 16.316406 -1.125 17.546875 -1.125 C 18.628906 -1.125 19.628906 -1.191406 20.546875 -1.328125 C 21.460938 -1.460938 22.269531 -1.738281 22.96875 -2.15625 C 23.675781 -2.582031 24.253906 -3.191406 24.703125 -3.984375 C 25.148438 -4.773438 25.4375 -5.832031 25.5625 -7.15625 L 26.421875 -7.15625 L 26.0625 0 C 24.707031 0.03125 23.472656 0.0507812 22.359375 0.0625 C 21.253906 0.0820312 20.085938 0.09375 18.859375 0.09375 C 16.304688 0.09375 14.175781 0.0546875 12.46875 -0.015625 C 10.757812 -0.0976562 9.421875 -0.140625 8.453125 -0.140625 C 7.972656 -0.140625 7.515625 -0.128906 7.078125 -0.109375 C 6.648438 -0.0976562 6.1875 -0.0820312 5.6875 -0.0625 C 5.195312 -0.0507812 4.628906 -0.0351562 3.984375 -0.015625 C 3.335938 -0.00390625 2.566406 0 1.671875 0 L 1.671875 -0.8125 C 2.148438 -0.8125 2.601562 -0.847656 3.03125 -0.921875 C 3.46875 -0.992188 3.851562 -1.132812 4.1875 -1.34375 C 4.519531 -1.5625 4.78125 -1.859375 4.96875 -2.234375 C 5.164062 -2.609375 5.265625 -3.109375 5.265625 -3.734375 L 5.265625 -26.375 C 5.265625 -27 5.164062 -27.5 4.96875 -27.875 C 4.78125 -28.25 4.519531 -28.539062 4.1875 -28.75 C 3.851562 -28.957031 3.46875 -29.097656 3.03125 -29.171875 C 2.601562 -29.253906 2.148438 -29.296875 1.671875 -29.296875 L 1.671875 -30.109375 C 2.566406 -30.109375 3.328125 -30.097656 3.953125 -30.078125 C 4.585938 -30.066406 5.144531 -30.050781 5.625 -30.03125 C 6.101562 -30.019531 6.550781 -30.003906 6.96875 -29.984375 C 7.394531 -29.972656 7.847656 -29.96875 8.328125 -29.96875 C 9.347656 -29.96875 10.660156 -30.007812 12.265625 -30.09375 C 13.867188 -30.1875 15.570312 -30.234375 17.375 -30.234375 C 18.539062 -30.234375 19.625 -30.21875 20.625 -30.1875 C 21.632812 -30.164062 22.738281 -30.140625 23.9375 -30.109375 L 24.203125 -23.40625 L 23.40625 -23.40625 C 23.3125 -24.539062 23.078125 -25.472656 22.703125 -26.203125 C 22.328125 -26.941406 21.820312 -27.519531 21.1875 -27.9375 C 20.5625 -28.363281 19.820312 -28.648438 18.96875 -28.796875 C 18.113281 -28.953125 17.160156 -29.03125 16.109375 -29.03125 C 15.597656 -29.03125 15.003906 -29.003906 14.328125 -28.953125 C 13.648438 -28.910156 13.101562 -28.859375 12.6875 -28.796875 C 12 -28.710938 11.65625 -28.304688 11.65625 -27.578125 L 11.65625 -16.25 Z M 14.265625 -16.25 "/></g></g></g><g fill="#ffffff" fill-opacity="1"><g transform="translate(210.69015, 181.716742)"><g><path d="M 18.578125 0.09375 C 16.515625 0.09375 14.613281 0.0546875 12.875 -0.015625 C 11.132812 -0.0976562 9.722656 -0.140625 8.640625 -0.140625 C 8.128906 -0.140625 7.648438 -0.128906 7.203125 -0.109375 C 6.753906 -0.0976562 6.265625 -0.0820312 5.734375 -0.0625 C 5.210938 -0.0507812 4.628906 -0.0351562 3.984375 -0.015625 C 3.335938 -0.00390625 2.566406 0 1.671875 0 L 1.671875 -0.8125 C 2.148438 -0.8125 2.601562 -0.847656 3.03125 -0.921875 C 3.46875 -0.992188 3.851562 -1.132812 4.1875 -1.34375 C 4.519531 -1.5625 4.78125 -1.859375 4.96875 -2.234375 C 5.164062 -2.609375 5.265625 -3.109375 5.265625 -3.734375 L 5.265625 -26.375 C 5.265625 -27 5.164062 -27.5 4.96875 -27.875 C 4.78125 -28.25 4.519531 -28.539062 4.1875 -28.75 C 3.851562 -28.957031 3.46875 -29.097656 3.03125 -29.171875 C 2.601562 -29.253906 2.148438 -29.296875 1.671875 -29.296875 L 1.671875 -30.109375 C 2.566406 -30.109375 3.328125 -30.097656 3.953125 -30.078125 C 4.585938 -30.066406 5.160156 -30.046875 5.671875 -30.015625 C 6.179688 -29.984375 6.644531 -29.957031 7.0625 -29.9375 C 7.476562 -29.925781 7.941406 -29.921875 8.453125 -29.921875 C 8.941406 -29.921875 9.398438 -29.925781 9.828125 -29.9375 C 10.265625 -29.957031 10.738281 -29.984375 11.25 -30.015625 C 11.757812 -30.046875 12.328125 -30.066406 12.953125 -30.078125 C 13.585938 -30.097656 14.351562 -30.109375 15.25 -30.109375 L 15.25 -29.296875 C 14.769531 -29.296875 14.3125 -29.253906 13.875 -29.171875 C 13.445312 -29.097656 13.066406 -28.957031 12.734375 -28.75 C 12.398438 -28.539062 12.132812 -28.25 11.9375 -27.875 C 11.75 -27.5 11.65625 -27 11.65625 -26.375 L 11.65625 -5.078125 C 11.65625 -4.148438 11.796875 -3.421875 12.078125 -2.890625 C 12.367188 -2.367188 12.78125 -1.972656 13.3125 -1.703125 C 13.851562 -1.441406 14.503906 -1.28125 15.265625 -1.21875 C 16.035156 -1.15625 16.898438 -1.125 17.859375 -1.125 C 20.054688 -1.125 21.785156 -1.570312 23.046875 -2.46875 C 24.304688 -3.375 25.097656 -5.007812 25.421875 -7.375 L 26.234375 -7.375 L 25.78125 0 C 24.644531 0.03125 23.445312 0.0507812 22.1875 0.0625 C 20.925781 0.0820312 19.722656 0.09375 18.578125 0.09375 Z M 18.578125 0.09375 "/></g></g></g><g fill="#ffffff" fill-opacity="1"><g transform="translate(234.72012, 181.716742)"><g><path d="M 2.109375 -0.8125 C 2.585938 -0.8125 3.046875 -0.847656 3.484375 -0.921875 C 3.921875 -0.992188 4.300781 -1.132812 4.625 -1.34375 C 4.957031 -1.5625 5.222656 -1.859375 5.421875 -2.234375 C 5.617188 -2.609375 5.71875 -3.109375 5.71875 -3.734375 L 5.71875 -26.28125 L 4.71875 -27.546875 C 4.300781 -28.078125 3.84375 -28.5 3.34375 -28.8125 C 2.851562 -29.132812 2.21875 -29.296875 1.4375 -29.296875 L 1.4375 -30.109375 C 1.976562 -30.109375 2.441406 -30.097656 2.828125 -30.078125 C 3.222656 -30.066406 3.578125 -30.050781 3.890625 -30.03125 C 4.203125 -30.019531 4.484375 -30.003906 4.734375 -29.984375 C 4.992188 -29.972656 5.289062 -29.96875 5.625 -29.96875 C 6.226562 -29.96875 6.976562 -29.988281 7.875 -30.03125 C 8.769531 -30.082031 9.582031 -30.109375 10.3125 -30.109375 L 27.671875 -8.8125 L 27.671875 -26.375 C 27.671875 -27 27.570312 -27.5 27.375 -27.875 C 27.1875 -28.25 26.925781 -28.539062 26.59375 -28.75 C 26.257812 -28.957031 25.875 -29.097656 25.4375 -29.171875 C 25.007812 -29.253906 24.554688 -29.296875 24.078125 -29.296875 L 24.078125 -30.109375 C 24.671875 -30.109375 25.15625 -30.097656 25.53125 -30.078125 C 25.90625 -30.066406 26.226562 -30.050781 26.5 -30.03125 C 26.769531 -30.019531 27.023438 -30.003906 27.265625 -29.984375 C 27.503906 -29.972656 27.789062 -29.96875 28.125 -29.96875 C 28.457031 -29.96875 28.765625 -29.972656 29.046875 -29.984375 C 29.328125 -30.003906 29.625 -30.019531 29.9375 -30.03125 C 30.257812 -30.050781 30.628906 -30.066406 31.046875 -30.078125 C 31.472656 -30.097656 31.984375 -30.109375 32.578125 -30.109375 L 32.578125 -29.296875 C 32.097656 -29.296875 31.640625 -29.253906 31.203125 -29.171875 C 30.773438 -29.097656 30.394531 -28.957031 30.0625 -28.75 C 29.726562 -28.539062 29.460938 -28.25 29.265625 -27.875 C 29.078125 -27.5 28.984375 -27 28.984375 -26.375 L 28.984375 0.546875 L 27.578125 0.546875 L 7.015625 -24.890625 L 7.015625 -3.734375 C 7.015625 -3.109375 7.113281 -2.609375 7.3125 -2.234375 C 7.507812 -1.859375 7.769531 -1.5625 8.09375 -1.34375 C 8.425781 -1.132812 8.8125 -0.992188 9.25 -0.921875 C 9.6875 -0.847656 10.144531 -0.8125 10.625 -0.8125 L 10.625 0 C 10.019531 0 9.503906 -0.00390625 9.078125 -0.015625 C 8.660156 -0.0351562 8.285156 -0.0507812 7.953125 -0.0625 C 7.628906 -0.0820312 7.320312 -0.0976562 7.03125 -0.109375 C 6.75 -0.128906 6.445312 -0.140625 6.125 -0.140625 C 5.789062 -0.140625 5.503906 -0.128906 5.265625 -0.109375 C 5.023438 -0.0976562 4.769531 -0.0820312 4.5 -0.0625 C 4.226562 -0.0507812 3.910156 -0.0351562 3.546875 -0.015625 C 3.191406 -0.00390625 2.710938 0 2.109375 0 Z M 2.109375 -0.8125 "/></g></g></g><g fill="#ffffff" fill-opacity="1"><g transform="translate(265.860087, 181.716742)"><g><path d="M 28.75 -10.75 C 28.75 -8.738281 28.488281 -7.019531 27.96875 -5.59375 C 27.445312 -4.175781 26.695312 -3.015625 25.71875 -2.109375 C 24.738281 -1.210938 23.566406 -0.550781 22.203125 -0.125 C 20.835938 0.289062 19.300781 0.5 17.59375 0.5 C 16.15625 0.5 14.675781 0.367188 13.15625 0.109375 C 11.644531 -0.140625 10.265625 -0.65625 9.015625 -1.4375 C 7.773438 -2.21875 6.765625 -3.332031 5.984375 -4.78125 C 5.203125 -6.238281 4.8125 -8.171875 4.8125 -10.578125 L 4.8125 -26.375 C 4.8125 -27 4.710938 -27.5 4.515625 -27.875 C 4.328125 -28.25 4.066406 -28.539062 3.734375 -28.75 C 3.398438 -28.957031 3.015625 -29.097656 2.578125 -29.171875 C 2.148438 -29.253906 1.695312 -29.296875 1.21875 -29.296875 L 1.21875 -30.109375 C 2.113281 -30.109375 2.851562 -30.097656 3.4375 -30.078125 C 4.019531 -30.066406 4.535156 -30.046875 4.984375 -30.015625 C 5.441406 -29.984375 5.859375 -29.957031 6.234375 -29.9375 C 6.609375 -29.925781 7.050781 -29.921875 7.5625 -29.921875 C 8.039062 -29.921875 8.519531 -29.925781 9 -29.9375 C 9.476562 -29.957031 10.003906 -29.984375 10.578125 -30.015625 C 11.148438 -30.046875 11.769531 -30.066406 12.4375 -30.078125 C 13.113281 -30.097656 13.90625 -30.109375 14.8125 -30.109375 L 14.8125 -29.296875 C 14.320312 -29.296875 13.859375 -29.253906 13.421875 -29.171875 C 12.992188 -29.097656 12.613281 -28.957031 12.28125 -28.75 C 11.957031 -28.539062 11.695312 -28.25 11.5 -27.875 C 11.300781 -27.5 11.203125 -27 11.203125 -26.375 L 11.203125 -10.578125 C 11.203125 -9.046875 11.320312 -7.691406 11.5625 -6.515625 C 11.800781 -5.347656 12.210938 -4.367188 12.796875 -3.578125 C 13.390625 -2.785156 14.1875 -2.175781 15.1875 -1.75 C 16.1875 -1.332031 17.453125 -1.125 18.984375 -1.125 C 21.742188 -1.125 23.84375 -1.96875 25.28125 -3.65625 C 26.726562 -5.351562 27.453125 -7.660156 27.453125 -10.578125 L 27.453125 -26.375 C 27.453125 -27 27.351562 -27.5 27.15625 -27.875 C 26.957031 -28.25 26.691406 -28.539062 26.359375 -28.75 C 26.035156 -28.957031 25.65625 -29.097656 25.21875 -29.171875 C 24.78125 -29.253906 24.320312 -29.296875 23.84375 -29.296875 L 23.84375 -30.109375 C 24.445312 -30.109375 24.941406 -30.097656 25.328125 -30.078125 C 25.722656 -30.066406 26.066406 -30.050781 26.359375 -30.03125 C 26.660156 -30.019531 26.945312 -30.003906 27.21875 -29.984375 C 27.488281 -29.972656 27.789062 -29.96875 28.125 -29.96875 C 28.457031 -29.96875 28.75 -29.972656 29 -29.984375 C 29.257812 -30.003906 29.535156 -30.019531 29.828125 -30.03125 C 30.128906 -30.050781 30.472656 -30.066406 30.859375 -30.078125 C 31.253906 -30.097656 31.753906 -30.109375 32.359375 -30.109375 L 32.359375 -29.296875 C 31.878906 -29.296875 31.421875 -29.253906 30.984375 -29.171875 C 30.546875 -29.097656 30.160156 -28.957031 29.828125 -28.75 C 29.503906 -28.539062 29.242188 -28.25 29.046875 -27.875 C 28.847656 -27.5 28.75 -27 28.75 -26.375 Z M 28.75 -10.75 "/></g></g></g><g fill="#ffffff" fill-opacity="1"><g transform="translate(296.235039, 181.716742)"><g><path d="M 7.78125 -0.8125 C 8.257812 -0.8125 8.71875 -0.847656 9.15625 -0.921875 C 9.59375 -0.992188 9.972656 -1.132812 10.296875 -1.34375 C 10.628906 -1.5625 10.894531 -1.859375 11.09375 -2.234375 C 11.289062 -2.609375 11.390625 -3.109375 11.390625 -3.734375 L 11.390625 -28.890625 C 9.890625 -28.953125 8.859375 -28.988281 8.296875 -29 C 7.742188 -29.019531 7.394531 -29.03125 7.25 -29.03125 C 5.476562 -29 4.140625 -28.410156 3.234375 -27.265625 C 2.335938 -26.128906 1.828125 -24.707031 1.703125 -23 L 0.90625 -23 L 1.171875 -30.1875 C 1.859375 -30.21875 2.523438 -30.234375 3.171875 -30.234375 C 3.816406 -30.234375 4.394531 -30.234375 4.90625 -30.234375 C 6.101562 -30.234375 7.164062 -30.222656 8.09375 -30.203125 C 9.03125 -30.191406 9.875 -30.179688 10.625 -30.171875 C 11.375 -30.160156 12.046875 -30.144531 12.640625 -30.125 C 13.242188 -30.113281 13.832031 -30.109375 14.40625 -30.109375 C 14.96875 -30.109375 15.554688 -30.113281 16.171875 -30.125 C 16.785156 -30.144531 17.472656 -30.160156 18.234375 -30.171875 C 19.003906 -30.179688 19.863281 -30.191406 20.8125 -30.203125 C 21.757812 -30.222656 22.863281 -30.234375 24.125 -30.234375 C 24.664062 -30.234375 25.265625 -30.234375 25.921875 -30.234375 C 26.578125 -30.234375 27.25 -30.21875 27.9375 -30.1875 L 28.265625 -23 L 27.453125 -23 C 27.390625 -23.75 27.238281 -24.484375 27 -25.203125 C 26.757812 -25.921875 26.40625 -26.5625 25.9375 -27.125 C 25.476562 -27.695312 24.910156 -28.160156 24.234375 -28.515625 C 23.554688 -28.878906 22.769531 -29.0625 21.875 -29.0625 C 21.78125 -29.0625 21.679688 -29.0625 21.578125 -29.0625 C 21.472656 -29.0625 21.273438 -29.054688 20.984375 -29.046875 C 20.703125 -29.035156 20.304688 -29.015625 19.796875 -28.984375 C 19.285156 -28.953125 18.613281 -28.921875 17.78125 -28.890625 L 17.78125 -3.734375 C 17.78125 -3.109375 17.875 -2.609375 18.0625 -2.234375 C 18.257812 -1.859375 18.519531 -1.5625 18.84375 -1.34375 C 19.175781 -1.132812 19.5625 -0.992188 20 -0.921875 C 20.4375 -0.847656 20.894531 -0.8125 21.375 -0.8125 L 21.375 0 C 20.476562 0 19.707031 -0.00390625 19.0625 -0.015625 C 18.414062 -0.0351562 17.84375 -0.0625 17.34375 -0.09375 C 16.851562 -0.125 16.378906 -0.144531 15.921875 -0.15625 C 15.472656 -0.175781 15.007812 -0.1875 14.53125 -0.1875 C 14.019531 -0.1875 13.554688 -0.175781 13.140625 -0.15625 C 12.722656 -0.144531 12.265625 -0.125 11.765625 -0.09375 C 11.273438 -0.0625 10.710938 -0.0351562 10.078125 -0.015625 C 9.453125 -0.00390625 8.6875 0 7.78125 0 Z M 7.78125 -0.8125 "/></g></g></g><g fill="#ffffff" fill-opacity="1"><g transform="translate(322.514998, 181.716742)"><g><path d="M 19.578125 -30.0625 C 19.578125 -29.550781 19.566406 -29.015625 19.546875 -28.453125 C 19.535156 -27.898438 19.53125 -27.351562 19.53125 -26.8125 C 19.53125 -26.550781 19.546875 -26.207031 19.578125 -25.78125 C 19.609375 -25.363281 19.628906 -24.929688 19.640625 -24.484375 C 19.660156 -24.035156 19.679688 -23.582031 19.703125 -23.125 C 19.734375 -22.675781 19.75 -22.300781 19.75 -22 L 18.859375 -22 C 18.765625 -22.875 18.53125 -23.753906 18.15625 -24.640625 C 17.78125 -25.523438 17.273438 -26.328125 16.640625 -27.046875 C 16.015625 -27.765625 15.289062 -28.347656 14.46875 -28.796875 C 13.644531 -29.242188 12.738281 -29.46875 11.75 -29.46875 C 10.9375 -29.46875 10.242188 -29.332031 9.671875 -29.0625 C 9.097656 -28.800781 8.628906 -28.457031 8.265625 -28.03125 C 7.910156 -27.613281 7.648438 -27.148438 7.484375 -26.640625 C 7.328125 -26.128906 7.25 -25.617188 7.25 -25.109375 C 7.25 -24.117188 7.507812 -23.269531 8.03125 -22.5625 C 8.550781 -21.863281 9.203125 -21.242188 9.984375 -20.703125 C 10.765625 -20.160156 11.601562 -19.675781 12.5 -19.25 C 13.40625 -18.832031 14.25 -18.445312 15.03125 -18.09375 C 16.019531 -17.613281 16.941406 -17.085938 17.796875 -16.515625 C 18.648438 -15.941406 19.382812 -15.296875 20 -14.578125 C 20.613281 -13.859375 21.097656 -13.023438 21.453125 -12.078125 C 21.816406 -11.140625 22 -10.039062 22 -8.78125 C 22 -7.394531 21.738281 -6.128906 21.21875 -4.984375 C 20.695312 -3.847656 19.976562 -2.867188 19.0625 -2.046875 C 18.144531 -1.222656 17.046875 -0.582031 15.765625 -0.125 C 14.492188 0.320312 13.125 0.546875 11.65625 0.546875 C 10.15625 0.546875 8.804688 0.3125 7.609375 -0.15625 C 6.410156 -0.625 5.238281 -1.273438 4.09375 -2.109375 L 3.0625 -0.359375 L 2.25 -0.359375 C 2.25 -1.285156 2.265625 -2.019531 2.296875 -2.5625 C 2.328125 -3.101562 2.34375 -3.675781 2.34375 -4.28125 C 2.34375 -4.90625 2.328125 -5.691406 2.296875 -6.640625 C 2.265625 -7.585938 2.25 -8.539062 2.25 -9.5 L 3.15625 -9.5 C 3.207031 -8.445312 3.441406 -7.394531 3.859375 -6.34375 C 4.285156 -5.289062 4.847656 -4.34375 5.546875 -3.5 C 6.253906 -2.664062 7.101562 -1.992188 8.09375 -1.484375 C 9.082031 -0.972656 10.195312 -0.71875 11.4375 -0.71875 C 12.476562 -0.71875 13.375 -0.875 14.125 -1.1875 C 14.875 -1.507812 15.492188 -1.914062 15.984375 -2.40625 C 16.484375 -2.90625 16.847656 -3.46875 17.078125 -4.09375 C 17.304688 -4.726562 17.421875 -5.375 17.421875 -6.03125 C 17.421875 -6.925781 17.242188 -7.695312 16.890625 -8.34375 C 16.546875 -8.988281 16.082031 -9.566406 15.5 -10.078125 C 14.914062 -10.585938 14.238281 -11.046875 13.46875 -11.453125 C 12.707031 -11.859375 11.90625 -12.253906 11.0625 -12.640625 C 10.101562 -13.085938 9.132812 -13.5625 8.15625 -14.0625 C 7.1875 -14.5625 6.3125 -15.171875 5.53125 -15.890625 C 4.75 -16.609375 4.109375 -17.484375 3.609375 -18.515625 C 3.117188 -19.546875 2.875 -20.8125 2.875 -22.3125 C 2.875 -23.550781 3.117188 -24.675781 3.609375 -25.6875 C 4.109375 -26.707031 4.765625 -27.59375 5.578125 -28.34375 C 6.390625 -29.09375 7.3125 -29.671875 8.34375 -30.078125 C 9.382812 -30.484375 10.457031 -30.6875 11.5625 -30.6875 C 12.707031 -30.6875 13.800781 -30.484375 14.84375 -30.078125 C 15.894531 -29.671875 16.882812 -29.09375 17.8125 -28.34375 L 18.765625 -30.0625 Z M 19.578125 -30.0625 "/></g></g></g></svg>