<svg xmlns="http://www.w3.org/2000/svg" xmlns:xlink="http://www.w3.org/1999/xlink" width="270" zoomAndPan="magnify" viewBox="0 0 202.5 60" height="80" preserveAspectRatio="xMidYMid meet" version="1.0"><defs><g/></defs><g fill="#ffffff" fill-opacity="1"><g transform="translate(83.288603, 49.157673)"><g><path d="M 0.203125 -3.65625 L 0.203125 -3.765625 L 2.078125 -3.765625 C 2.390625 -3.765625 2.609375 -3.785156 2.734375 -3.828125 C 2.703125 -3.660156 2.6875 -3.429688 2.6875 -3.140625 L 2.6875 -2.859375 L 2.546875 -2.859375 L 2.453125 -3.46875 C 2.441406 -3.5625 2.382812 -3.609375 2.28125 -3.609375 L 1.0625 -3.609375 L 1.0625 -1.96875 L 2.25 -1.96875 C 2.28125 -1.96875 2.300781 -1.992188 2.3125 -2.046875 L 2.34375 -2.421875 L 2.453125 -2.421875 L 2.453125 -1.34375 L 2.34375 -1.34375 L 2.3125 -1.71875 C 2.300781 -1.769531 2.28125 -1.796875 2.25 -1.796875 L 1.0625 -1.796875 L 1.0625 -0.1875 C 1.0625 -0.132812 1.09375 -0.109375 1.15625 -0.109375 L 1.671875 -0.109375 L 1.671875 0 L 0.203125 0 L 0.203125 -0.109375 L 0.484375 -0.109375 C 0.546875 -0.109375 0.578125 -0.132812 0.578125 -0.1875 L 0.578125 -3.59375 C 0.578125 -3.632812 0.546875 -3.65625 0.484375 -3.65625 Z M 0.203125 -3.65625 "/></g></g></g><g fill="#ffffff" fill-opacity="1"><g transform="translate(86.502683, 49.157673)"><g><path d="M 2.890625 -0.125 C 2.953125 -0.125 3 -0.148438 3.03125 -0.203125 C 3.070312 -0.253906 3.09375 -0.3125 3.09375 -0.375 C 3.09375 -0.445312 3.085938 -0.515625 3.078125 -0.578125 L 3.1875 -0.59375 C 3.207031 -0.53125 3.21875 -0.460938 3.21875 -0.390625 C 3.21875 -0.242188 3.171875 -0.128906 3.078125 -0.046875 C 2.992188 0.0351562 2.882812 0.078125 2.75 0.078125 C 2.414062 0.078125 2.25 -0.125 2.25 -0.53125 C 2.25 -0.945312 2.195312 -1.25 2.09375 -1.4375 C 1.988281 -1.632812 1.773438 -1.734375 1.453125 -1.734375 L 1.0625 -1.734375 L 1.0625 -0.1875 C 1.0625 -0.132812 1.09375 -0.109375 1.15625 -0.109375 L 1.546875 -0.109375 L 1.546875 0 L 0.203125 0 L 0.203125 -0.109375 L 0.484375 -0.109375 C 0.546875 -0.109375 0.578125 -0.132812 0.578125 -0.1875 L 0.578125 -3.59375 C 0.578125 -3.632812 0.546875 -3.65625 0.484375 -3.65625 L 0.203125 -3.65625 L 0.203125 -3.765625 L 1.703125 -3.765625 C 2.035156 -3.765625 2.316406 -3.671875 2.546875 -3.484375 C 2.785156 -3.304688 2.90625 -3.066406 2.90625 -2.765625 C 2.90625 -2.515625 2.828125 -2.300781 2.671875 -2.125 C 2.523438 -1.957031 2.328125 -1.84375 2.078125 -1.78125 C 2.359375 -1.6875 2.535156 -1.515625 2.609375 -1.265625 C 2.671875 -1.066406 2.703125 -0.828125 2.703125 -0.546875 C 2.703125 -0.265625 2.765625 -0.125 2.890625 -0.125 Z M 1.671875 -3.609375 L 1.0625 -3.609375 L 1.0625 -1.921875 L 1.671875 -1.921875 C 1.910156 -1.921875 2.09375 -2.003906 2.21875 -2.171875 C 2.351562 -2.335938 2.421875 -2.53125 2.421875 -2.75 C 2.421875 -2.976562 2.351562 -3.175781 2.21875 -3.34375 C 2.09375 -3.519531 1.910156 -3.609375 1.671875 -3.609375 Z M 1.671875 -3.609375 "/></g></g></g><g fill="#ffffff" fill-opacity="1"><g transform="translate(90.093836, 49.157673)"><g><path d="M 0.203125 0 L 0.203125 -0.109375 L 0.484375 -0.109375 C 0.546875 -0.109375 0.578125 -0.132812 0.578125 -0.1875 L 0.578125 -3.59375 C 0.578125 -3.632812 0.546875 -3.65625 0.484375 -3.65625 L 0.203125 -3.65625 L 0.203125 -3.765625 L 2.109375 -3.765625 C 2.421875 -3.765625 2.640625 -3.785156 2.765625 -3.828125 C 2.734375 -3.660156 2.71875 -3.429688 2.71875 -3.140625 L 2.71875 -2.859375 L 2.578125 -2.859375 L 2.484375 -3.46875 C 2.484375 -3.5625 2.429688 -3.609375 2.328125 -3.609375 L 1.0625 -3.609375 L 1.0625 -1.96875 L 2.265625 -1.96875 C 2.316406 -1.96875 2.347656 -1.992188 2.359375 -2.046875 L 2.375 -2.421875 L 2.484375 -2.421875 L 2.484375 -1.34375 L 2.375 -1.34375 L 2.359375 -1.71875 C 2.347656 -1.769531 2.316406 -1.796875 2.265625 -1.796875 L 1.0625 -1.796875 L 1.0625 -0.171875 L 2.40625 -0.171875 C 2.507812 -0.171875 2.566406 -0.210938 2.578125 -0.296875 L 2.65625 -1 L 2.796875 -1 L 2.796875 -0.71875 C 2.796875 -0.363281 2.816406 -0.109375 2.859375 0.046875 C 2.722656 0.015625 2.5 0 2.1875 0 Z M 0.203125 0 "/></g></g></g><g fill="#ffffff" fill-opacity="1"><g transform="translate(93.60718, 49.157673)"><g><path d="M 0.203125 0 L 0.203125 -0.109375 L 0.484375 -0.109375 C 0.546875 -0.109375 0.578125 -0.132812 0.578125 -0.1875 L 0.578125 -3.59375 C 0.578125 -3.632812 0.546875 -3.65625 0.484375 -3.65625 L 0.203125 -3.65625 L 0.203125 -3.765625 L 2.109375 -3.765625 C 2.421875 -3.765625 2.640625 -3.785156 2.765625 -3.828125 C 2.734375 -3.660156 2.71875 -3.429688 2.71875 -3.140625 L 2.71875 -2.859375 L 2.578125 -2.859375 L 2.484375 -3.46875 C 2.484375 -3.5625 2.429688 -3.609375 2.328125 -3.609375 L 1.0625 -3.609375 L 1.0625 -1.96875 L 2.265625 -1.96875 C 2.316406 -1.96875 2.347656 -1.992188 2.359375 -2.046875 L 2.375 -2.421875 L 2.484375 -2.421875 L 2.484375 -1.34375 L 2.375 -1.34375 L 2.359375 -1.71875 C 2.347656 -1.769531 2.316406 -1.796875 2.265625 -1.796875 L 1.0625 -1.796875 L 1.0625 -0.171875 L 2.40625 -0.171875 C 2.507812 -0.171875 2.566406 -0.210938 2.578125 -0.296875 L 2.65625 -1 L 2.796875 -1 L 2.796875 -0.71875 C 2.796875 -0.363281 2.816406 -0.109375 2.859375 0.046875 C 2.722656 0.015625 2.5 0 2.1875 0 Z M 0.203125 0 "/></g></g></g><g fill="#ffffff" fill-opacity="1"><g transform="translate(97.120523, 49.157673)"><g><path d="M 0.203125 0 L 0.203125 -0.109375 L 0.484375 -0.109375 C 0.546875 -0.109375 0.578125 -0.132812 0.578125 -0.1875 L 0.578125 -3.59375 C 0.578125 -3.632812 0.546875 -3.65625 0.484375 -3.65625 L 0.203125 -3.65625 L 0.203125 -3.765625 L 1.4375 -3.765625 L 1.4375 -3.65625 L 1.15625 -3.65625 C 1.09375 -3.65625 1.0625 -3.632812 1.0625 -3.59375 L 1.0625 -0.171875 L 2.25 -0.171875 C 2.351562 -0.171875 2.410156 -0.210938 2.421875 -0.296875 L 2.515625 -1 L 2.65625 -1 L 2.65625 -0.71875 C 2.65625 -0.363281 2.671875 -0.109375 2.703125 0.046875 C 2.578125 0.015625 2.359375 0 2.046875 0 Z M 0.203125 0 "/></g></g></g><g fill="#ffffff" fill-opacity="1"><g transform="translate(100.244827, 49.157673)"><g><path d="M 3.453125 0 L 2.21875 0 L 2.21875 -0.109375 L 2.609375 -0.109375 L 2.1875 -1.265625 L 0.875 -1.265625 L 0.453125 -0.109375 L 0.84375 -0.109375 L 0.84375 0 L -0.0625 0 L -0.0625 -0.109375 L 0.15625 -0.109375 C 0.21875 -0.109375 0.257812 -0.132812 0.28125 -0.1875 L 1.59375 -3.765625 L 1.796875 -3.765625 L 3.109375 -0.1875 C 3.128906 -0.132812 3.164062 -0.109375 3.21875 -0.109375 L 3.453125 -0.109375 Z M 1.53125 -3.0625 L 0.9375 -1.4375 L 2.125 -1.4375 Z M 1.53125 -3.0625 "/></g></g></g><g fill="#ffffff" fill-opacity="1"><g transform="translate(104.051453, 49.157673)"><g><path d="M 3.03125 0 L 0.78125 -3.34375 L 0.78125 -0.1875 C 0.78125 -0.132812 0.804688 -0.109375 0.859375 -0.109375 L 1.140625 -0.109375 L 1.140625 0 L 0.203125 0 L 0.203125 -0.109375 L 0.484375 -0.109375 C 0.546875 -0.109375 0.578125 -0.132812 0.578125 -0.1875 L 0.578125 -3.59375 C 0.578125 -3.632812 0.546875 -3.65625 0.484375 -3.65625 L 0.203125 -3.65625 L 0.203125 -3.765625 L 1.09375 -3.765625 L 3.015625 -0.921875 L 3.015625 -3.578125 C 3.015625 -3.628906 2.988281 -3.65625 2.9375 -3.65625 L 2.65625 -3.65625 L 2.65625 -3.765625 L 3.578125 -3.765625 L 3.578125 -3.65625 L 3.296875 -3.65625 C 3.242188 -3.65625 3.21875 -3.632812 3.21875 -3.59375 L 3.21875 0 Z M 3.03125 0 "/></g></g></g><g fill="#ffffff" fill-opacity="1"><g transform="translate(108.235145, 49.157673)"><g><path d="M 2.984375 0 L 2.984375 -0.078125 C 2.972656 -0.160156 2.941406 -0.203125 2.890625 -0.203125 C 2.859375 -0.203125 2.796875 -0.179688 2.703125 -0.140625 C 2.453125 0.00390625 2.191406 0.078125 1.921875 0.078125 C 1.421875 0.078125 1.007812 -0.09375 0.6875 -0.4375 C 0.363281 -0.789062 0.203125 -1.269531 0.203125 -1.875 C 0.203125 -2.488281 0.359375 -2.96875 0.671875 -3.3125 C 0.992188 -3.664062 1.410156 -3.84375 1.921875 -3.84375 C 2.179688 -3.84375 2.441406 -3.773438 2.703125 -3.640625 C 2.785156 -3.597656 2.847656 -3.578125 2.890625 -3.578125 C 2.941406 -3.578125 2.972656 -3.617188 2.984375 -3.703125 L 2.984375 -3.8125 L 3.09375 -3.8125 L 3.09375 -2.765625 L 2.984375 -2.765625 C 2.953125 -3.078125 2.835938 -3.304688 2.640625 -3.453125 C 2.453125 -3.597656 2.210938 -3.671875 1.921875 -3.671875 C 1.554688 -3.671875 1.265625 -3.507812 1.046875 -3.1875 C 0.828125 -2.863281 0.71875 -2.425781 0.71875 -1.875 C 0.71875 -1.320312 0.828125 -0.890625 1.046875 -0.578125 C 1.273438 -0.265625 1.566406 -0.109375 1.921875 -0.109375 C 2.210938 -0.109375 2.453125 -0.175781 2.640625 -0.3125 C 2.835938 -0.457031 2.953125 -0.6875 2.984375 -1 L 3.09375 -1 L 3.09375 0 Z M 2.984375 0 "/></g></g></g><g fill="#ffffff" fill-opacity="1"><g transform="translate(112.023809, 49.157673)"><g><path d="M 0.203125 0 L 0.203125 -0.109375 L 0.484375 -0.109375 C 0.546875 -0.109375 0.578125 -0.132812 0.578125 -0.1875 L 0.578125 -3.59375 C 0.578125 -3.632812 0.546875 -3.65625 0.484375 -3.65625 L 0.203125 -3.65625 L 0.203125 -3.765625 L 2.109375 -3.765625 C 2.421875 -3.765625 2.640625 -3.785156 2.765625 -3.828125 C 2.734375 -3.660156 2.71875 -3.429688 2.71875 -3.140625 L 2.71875 -2.859375 L 2.578125 -2.859375 L 2.484375 -3.46875 C 2.484375 -3.5625 2.429688 -3.609375 2.328125 -3.609375 L 1.0625 -3.609375 L 1.0625 -1.96875 L 2.265625 -1.96875 C 2.316406 -1.96875 2.347656 -1.992188 2.359375 -2.046875 L 2.375 -2.421875 L 2.484375 -2.421875 L 2.484375 -1.34375 L 2.375 -1.34375 L 2.359375 -1.71875 C 2.347656 -1.769531 2.316406 -1.796875 2.265625 -1.796875 L 1.0625 -1.796875 L 1.0625 -0.171875 L 2.40625 -0.171875 C 2.507812 -0.171875 2.566406 -0.210938 2.578125 -0.296875 L 2.65625 -1 L 2.796875 -1 L 2.796875 -0.71875 C 2.796875 -0.363281 2.816406 -0.109375 2.859375 0.046875 C 2.722656 0.015625 2.5 0 2.1875 0 Z M 0.203125 0 "/></g></g></g><g fill="#ffffff" fill-opacity="1"><g transform="translate(115.53715, 49.157673)"><g><path d="M 2.890625 -0.125 C 2.953125 -0.125 3 -0.148438 3.03125 -0.203125 C 3.070312 -0.253906 3.09375 -0.3125 3.09375 -0.375 C 3.09375 -0.445312 3.085938 -0.515625 3.078125 -0.578125 L 3.1875 -0.59375 C 3.207031 -0.53125 3.21875 -0.460938 3.21875 -0.390625 C 3.21875 -0.242188 3.171875 -0.128906 3.078125 -0.046875 C 2.992188 0.0351562 2.882812 0.078125 2.75 0.078125 C 2.414062 0.078125 2.25 -0.125 2.25 -0.53125 C 2.25 -0.945312 2.195312 -1.25 2.09375 -1.4375 C 1.988281 -1.632812 1.773438 -1.734375 1.453125 -1.734375 L 1.0625 -1.734375 L 1.0625 -0.1875 C 1.0625 -0.132812 1.09375 -0.109375 1.15625 -0.109375 L 1.546875 -0.109375 L 1.546875 0 L 0.203125 0 L 0.203125 -0.109375 L 0.484375 -0.109375 C 0.546875 -0.109375 0.578125 -0.132812 0.578125 -0.1875 L 0.578125 -3.59375 C 0.578125 -3.632812 0.546875 -3.65625 0.484375 -3.65625 L 0.203125 -3.65625 L 0.203125 -3.765625 L 1.703125 -3.765625 C 2.035156 -3.765625 2.316406 -3.671875 2.546875 -3.484375 C 2.785156 -3.304688 2.90625 -3.066406 2.90625 -2.765625 C 2.90625 -2.515625 2.828125 -2.300781 2.671875 -2.125 C 2.523438 -1.957031 2.328125 -1.84375 2.078125 -1.78125 C 2.359375 -1.6875 2.535156 -1.515625 2.609375 -1.265625 C 2.671875 -1.066406 2.703125 -0.828125 2.703125 -0.546875 C 2.703125 -0.265625 2.765625 -0.125 2.890625 -0.125 Z M 1.671875 -3.609375 L 1.0625 -3.609375 L 1.0625 -1.921875 L 1.671875 -1.921875 C 1.910156 -1.921875 2.09375 -2.003906 2.21875 -2.171875 C 2.351562 -2.335938 2.421875 -2.53125 2.421875 -2.75 C 2.421875 -2.976562 2.351562 -3.175781 2.21875 -3.34375 C 2.09375 -3.519531 1.910156 -3.609375 1.671875 -3.609375 Z M 1.671875 -3.609375 "/></g></g></g><g fill="#ffffff" fill-opacity="1"><g transform="translate(6.07023, 43.022824)"><g><path d="M 12.015625 -18.015625 C 12.554688 -18.015625 13.023438 -18.007812 13.421875 -18 C 13.828125 -18 14.191406 -17.988281 14.515625 -17.96875 C 14.835938 -17.945312 15.140625 -17.929688 15.421875 -17.921875 C 15.703125 -17.910156 15.992188 -17.90625 16.296875 -17.90625 C 16.585938 -17.90625 16.851562 -17.910156 17.09375 -17.921875 C 17.332031 -17.929688 17.585938 -17.945312 17.859375 -17.96875 C 18.128906 -17.988281 18.441406 -18 18.796875 -18 C 19.160156 -18.007812 19.613281 -18.015625 20.15625 -18.015625 L 20.15625 -17.53125 C 19.863281 -17.53125 19.585938 -17.507812 19.328125 -17.46875 C 19.066406 -17.425781 18.835938 -17.34375 18.640625 -17.21875 C 18.441406 -17.09375 18.285156 -16.914062 18.171875 -16.6875 C 18.054688 -16.457031 18 -16.15625 18 -15.78125 L 18 -2.234375 C 18 -1.859375 18.054688 -1.554688 18.171875 -1.328125 C 18.285156 -1.109375 18.441406 -0.9375 18.640625 -0.8125 C 18.835938 -0.6875 19.066406 -0.597656 19.328125 -0.546875 C 19.585938 -0.503906 19.863281 -0.484375 20.15625 -0.484375 L 20.15625 0 C 19.613281 0 19.160156 -0.00390625 18.796875 -0.015625 C 18.441406 -0.0351562 18.128906 -0.0546875 17.859375 -0.078125 C 17.585938 -0.0976562 17.332031 -0.113281 17.09375 -0.125 C 16.851562 -0.144531 16.585938 -0.15625 16.296875 -0.15625 C 15.992188 -0.15625 15.703125 -0.144531 15.421875 -0.125 C 15.140625 -0.113281 14.835938 -0.0976562 14.515625 -0.078125 C 14.191406 -0.0546875 13.828125 -0.0351562 13.421875 -0.015625 C 13.023438 -0.00390625 12.554688 0 12.015625 0 L 12.015625 -0.484375 C 12.296875 -0.484375 12.566406 -0.503906 12.828125 -0.546875 C 13.085938 -0.597656 13.316406 -0.6875 13.515625 -0.8125 C 13.710938 -0.9375 13.867188 -1.109375 13.984375 -1.328125 C 14.109375 -1.554688 14.171875 -1.859375 14.171875 -2.234375 L 14.171875 -8.859375 L 6.984375 -8.859375 L 6.984375 -2.234375 C 6.984375 -1.859375 7.039062 -1.554688 7.15625 -1.328125 C 7.269531 -1.109375 7.425781 -0.9375 7.625 -0.8125 C 7.820312 -0.6875 8.050781 -0.597656 8.3125 -0.546875 C 8.570312 -0.503906 8.84375 -0.484375 9.125 -0.484375 L 9.125 0 C 8.59375 0 8.125 -0.00390625 7.71875 -0.015625 C 7.3125 -0.0351562 6.945312 -0.0546875 6.625 -0.078125 C 6.300781 -0.0976562 5.992188 -0.113281 5.703125 -0.125 C 5.421875 -0.144531 5.132812 -0.15625 4.84375 -0.15625 C 4.539062 -0.15625 4.269531 -0.144531 4.03125 -0.125 C 3.800781 -0.113281 3.550781 -0.0976562 3.28125 -0.078125 C 3.007812 -0.0546875 2.695312 -0.0351562 2.34375 -0.015625 C 1.988281 -0.00390625 1.539062 0 1 0 L 1 -0.484375 C 1.28125 -0.484375 1.550781 -0.503906 1.8125 -0.546875 C 2.070312 -0.597656 2.300781 -0.6875 2.5 -0.8125 C 2.695312 -0.9375 2.851562 -1.109375 2.96875 -1.328125 C 3.09375 -1.554688 3.15625 -1.859375 3.15625 -2.234375 L 3.15625 -15.78125 C 3.15625 -16.15625 3.09375 -16.457031 2.96875 -16.6875 C 2.851562 -16.914062 2.695312 -17.09375 2.5 -17.21875 C 2.300781 -17.34375 2.070312 -17.425781 1.8125 -17.46875 C 1.550781 -17.507812 1.28125 -17.53125 1 -17.53125 L 1 -18.015625 C 1.539062 -18.015625 1.988281 -18.007812 2.34375 -18 C 2.695312 -18 3.007812 -17.988281 3.28125 -17.96875 C 3.550781 -17.945312 3.800781 -17.929688 4.03125 -17.921875 C 4.269531 -17.910156 4.539062 -17.90625 4.84375 -17.90625 C 5.132812 -17.90625 5.421875 -17.910156 5.703125 -17.921875 C 5.992188 -17.929688 6.300781 -17.945312 6.625 -17.96875 C 6.945312 -17.988281 7.3125 -18 7.71875 -18 C 8.125 -18.007812 8.59375 -18.015625 9.125 -18.015625 L 9.125 -17.53125 C 8.84375 -17.53125 8.570312 -17.507812 8.3125 -17.46875 C 8.050781 -17.425781 7.820312 -17.34375 7.625 -17.21875 C 7.425781 -17.09375 7.269531 -16.914062 7.15625 -16.6875 C 7.039062 -16.457031 6.984375 -16.15625 6.984375 -15.78125 L 6.984375 -9.609375 L 14.171875 -9.609375 L 14.171875 -15.78125 C 14.171875 -16.15625 14.109375 -16.457031 13.984375 -16.6875 C 13.867188 -16.914062 13.710938 -17.09375 13.515625 -17.21875 C 13.316406 -17.34375 13.085938 -17.425781 12.828125 -17.46875 C 12.566406 -17.507812 12.296875 -17.53125 12.015625 -17.53125 Z M 12.015625 -18.015625 "/></g></g></g><g fill="#ffffff" fill-opacity="1"><g transform="translate(25.489288, 43.022824)"><g><path d="M 0.140625 -18.015625 C 0.765625 -18.015625 1.296875 -18.007812 1.734375 -18 C 2.171875 -18 2.554688 -17.988281 2.890625 -17.96875 C 3.222656 -17.945312 3.523438 -17.929688 3.796875 -17.921875 C 4.066406 -17.910156 4.347656 -17.90625 4.640625 -17.90625 C 4.898438 -17.90625 5.140625 -17.910156 5.359375 -17.921875 C 5.578125 -17.929688 5.820312 -17.945312 6.09375 -17.96875 C 6.375 -17.988281 6.707031 -18 7.09375 -18 C 7.476562 -18.007812 7.976562 -18.015625 8.59375 -18.015625 L 8.59375 -17.53125 C 8.363281 -17.53125 8.117188 -17.515625 7.859375 -17.484375 C 7.597656 -17.460938 7.359375 -17.40625 7.140625 -17.3125 C 6.921875 -17.226562 6.738281 -17.085938 6.59375 -16.890625 C 6.457031 -16.691406 6.390625 -16.429688 6.390625 -16.109375 C 6.390625 -15.929688 6.410156 -15.75 6.453125 -15.5625 C 6.492188 -15.375 6.539062 -15.195312 6.59375 -15.03125 L 9.96875 -4.953125 L 13.328125 -14.46875 C 13.128906 -15.070312 12.941406 -15.578125 12.765625 -15.984375 C 12.585938 -16.390625 12.398438 -16.703125 12.203125 -16.921875 C 12.003906 -17.148438 11.773438 -17.304688 11.515625 -17.390625 C 11.253906 -17.484375 10.9375 -17.53125 10.5625 -17.53125 L 10.5625 -18.015625 C 11.207031 -18.015625 11.726562 -18.007812 12.125 -18 C 12.53125 -18 12.875 -17.988281 13.15625 -17.96875 C 13.4375 -17.945312 13.675781 -17.929688 13.875 -17.921875 C 14.070312 -17.910156 14.296875 -17.90625 14.546875 -17.90625 C 14.773438 -17.90625 15.015625 -17.910156 15.265625 -17.921875 C 15.523438 -17.929688 15.816406 -17.945312 16.140625 -17.96875 C 16.472656 -17.988281 16.875 -18 17.34375 -18 C 17.8125 -18.007812 18.394531 -18.015625 19.09375 -18.015625 L 19.09375 -17.53125 C 18.769531 -17.53125 18.457031 -17.507812 18.15625 -17.46875 C 17.863281 -17.4375 17.609375 -17.359375 17.390625 -17.234375 C 17.179688 -17.109375 17.015625 -16.925781 16.890625 -16.6875 C 16.765625 -16.457031 16.703125 -16.148438 16.703125 -15.765625 C 16.703125 -15.398438 16.753906 -15.023438 16.859375 -14.640625 C 16.972656 -14.253906 17.097656 -13.835938 17.234375 -13.390625 L 20.0625 -4.90625 L 23.25 -14.65625 C 23.40625 -15.132812 23.484375 -15.535156 23.484375 -15.859375 C 23.484375 -16.503906 23.289062 -16.9375 22.90625 -17.15625 C 22.519531 -17.375 21.929688 -17.5 21.140625 -17.53125 L 21.140625 -18.015625 C 21.578125 -18.015625 21.925781 -18.007812 22.1875 -18 C 22.457031 -18 22.6875 -17.992188 22.875 -17.984375 C 23.070312 -17.972656 23.242188 -17.960938 23.390625 -17.953125 C 23.546875 -17.941406 23.738281 -17.9375 23.96875 -17.9375 C 24.1875 -17.9375 24.382812 -17.941406 24.5625 -17.953125 C 24.75 -17.960938 24.941406 -17.972656 25.140625 -17.984375 C 25.347656 -17.992188 25.59375 -18 25.875 -18 C 26.15625 -18.007812 26.5 -18.015625 26.90625 -18.015625 L 26.90625 -17.53125 C 26.5 -17.53125 26.15625 -17.484375 25.875 -17.390625 C 25.59375 -17.304688 25.351562 -17.171875 25.15625 -16.984375 C 24.957031 -16.796875 24.785156 -16.550781 24.640625 -16.25 C 24.503906 -15.957031 24.375 -15.613281 24.25 -15.21875 L 19.15625 0.4375 L 18.1875 0.4375 L 13.734375 -13.21875 L 8.96875 0.4375 L 8 0.4375 L 2.59375 -15.65625 C 2.332031 -16.382812 2 -16.878906 1.59375 -17.140625 C 1.195312 -17.398438 0.710938 -17.53125 0.140625 -17.53125 Z M 0.140625 -18.015625 "/></g></g></g><g fill="#ffffff" fill-opacity="1"><g transform="translate(50.806784, 43.022824)"><g><path d="M 10.265625 -7.078125 L 5.171875 -7.078125 L 3.5 -2.53125 C 3.445312 -2.375 3.398438 -2.21875 3.359375 -2.0625 C 3.328125 -1.90625 3.3125 -1.765625 3.3125 -1.640625 C 3.3125 -1.390625 3.359375 -1.1875 3.453125 -1.03125 C 3.554688 -0.882812 3.6875 -0.769531 3.84375 -0.6875 C 4.007812 -0.601562 4.191406 -0.546875 4.390625 -0.515625 C 4.585938 -0.492188 4.785156 -0.484375 4.984375 -0.484375 L 4.984375 0 C 4.609375 0 4.289062 -0.00390625 4.03125 -0.015625 C 3.769531 -0.0234375 3.539062 -0.03125 3.34375 -0.03125 C 3.144531 -0.0390625 2.960938 -0.0507812 2.796875 -0.0625 C 2.640625 -0.0703125 2.472656 -0.078125 2.296875 -0.078125 C 2.097656 -0.078125 1.929688 -0.0703125 1.796875 -0.0625 C 1.660156 -0.0507812 1.507812 -0.0390625 1.34375 -0.03125 C 1.1875 -0.03125 0.988281 -0.0234375 0.75 -0.015625 C 0.519531 -0.00390625 0.222656 0 -0.140625 0 L -0.140625 -0.484375 C 1.210938 -0.484375 2.140625 -1.15625 2.640625 -2.5 L 8.59375 -18.375 L 9.53125 -18.375 L 15.84375 -2.53125 C 16.144531 -1.738281 16.488281 -1.195312 16.875 -0.90625 C 17.257812 -0.625 17.773438 -0.484375 18.421875 -0.484375 L 18.421875 0 C 17.878906 0 17.414062 -0.00390625 17.03125 -0.015625 C 16.644531 -0.0234375 16.300781 -0.03125 16 -0.03125 C 15.695312 -0.0390625 15.414062 -0.0507812 15.15625 -0.0625 C 14.894531 -0.0703125 14.628906 -0.078125 14.359375 -0.078125 C 14.085938 -0.078125 13.835938 -0.0703125 13.609375 -0.0625 C 13.390625 -0.0507812 13.132812 -0.0390625 12.84375 -0.03125 C 12.5625 -0.03125 12.226562 -0.0234375 11.84375 -0.015625 C 11.46875 -0.00390625 10.992188 0 10.421875 0 L 10.421875 -0.484375 C 10.640625 -0.484375 10.851562 -0.492188 11.0625 -0.515625 C 11.269531 -0.546875 11.453125 -0.601562 11.609375 -0.6875 C 11.773438 -0.769531 11.910156 -0.878906 12.015625 -1.015625 C 12.117188 -1.160156 12.171875 -1.351562 12.171875 -1.59375 C 12.171875 -1.789062 12.144531 -1.984375 12.09375 -2.171875 C 12.039062 -2.359375 11.976562 -2.539062 11.90625 -2.71875 Z M 5.46875 -7.84375 L 10 -7.84375 L 7.703125 -13.875 Z M 5.46875 -7.84375 "/></g></g></g><g fill="#ffffff" fill-opacity="1"><g transform="translate(67.370895, 43.022824)"><g><path d="M 1.265625 -0.484375 C 1.554688 -0.484375 1.832031 -0.503906 2.09375 -0.546875 C 2.351562 -0.597656 2.582031 -0.6875 2.78125 -0.8125 C 2.976562 -0.9375 3.132812 -1.109375 3.25 -1.328125 C 3.363281 -1.554688 3.421875 -1.859375 3.421875 -2.234375 L 3.421875 -15.734375 L 2.828125 -16.484375 C 2.578125 -16.804688 2.300781 -17.0625 2 -17.25 C 1.707031 -17.4375 1.328125 -17.53125 0.859375 -17.53125 L 0.859375 -18.015625 C 1.179688 -18.015625 1.457031 -18.007812 1.6875 -18 C 1.925781 -18 2.140625 -17.992188 2.328125 -17.984375 C 2.515625 -17.972656 2.6875 -17.960938 2.84375 -17.953125 C 3 -17.941406 3.171875 -17.9375 3.359375 -17.9375 C 3.722656 -17.9375 4.171875 -17.945312 4.703125 -17.96875 C 5.242188 -18 5.734375 -18.015625 6.171875 -18.015625 L 16.5625 -5.28125 L 16.5625 -15.78125 C 16.5625 -16.15625 16.503906 -16.457031 16.390625 -16.6875 C 16.273438 -16.914062 16.117188 -17.09375 15.921875 -17.21875 C 15.722656 -17.34375 15.492188 -17.425781 15.234375 -17.46875 C 14.972656 -17.507812 14.695312 -17.53125 14.40625 -17.53125 L 14.40625 -18.015625 C 14.769531 -18.015625 15.0625 -18.007812 15.28125 -18 C 15.507812 -18 15.703125 -17.992188 15.859375 -17.984375 C 16.023438 -17.972656 16.179688 -17.960938 16.328125 -17.953125 C 16.472656 -17.941406 16.640625 -17.9375 16.828125 -17.9375 C 17.023438 -17.9375 17.207031 -17.941406 17.375 -17.953125 C 17.550781 -17.960938 17.734375 -17.972656 17.921875 -17.984375 C 18.109375 -17.992188 18.328125 -18 18.578125 -18 C 18.835938 -18.007812 19.144531 -18.015625 19.5 -18.015625 L 19.5 -17.53125 C 19.21875 -17.53125 18.945312 -17.507812 18.6875 -17.46875 C 18.425781 -17.425781 18.195312 -17.34375 18 -17.21875 C 17.800781 -17.09375 17.640625 -16.914062 17.515625 -16.6875 C 17.398438 -16.457031 17.34375 -16.15625 17.34375 -15.78125 L 17.34375 0.328125 L 16.515625 0.328125 L 4.203125 -14.890625 L 4.203125 -2.234375 C 4.203125 -1.859375 4.257812 -1.554688 4.375 -1.328125 C 4.488281 -1.109375 4.644531 -0.9375 4.84375 -0.8125 C 5.039062 -0.6875 5.269531 -0.597656 5.53125 -0.546875 C 5.789062 -0.503906 6.066406 -0.484375 6.359375 -0.484375 L 6.359375 0 C 5.992188 0 5.6875 -0.00390625 5.4375 -0.015625 C 5.1875 -0.0234375 4.960938 -0.03125 4.765625 -0.03125 C 4.566406 -0.0390625 4.378906 -0.0507812 4.203125 -0.0625 C 4.035156 -0.0703125 3.851562 -0.078125 3.65625 -0.078125 C 3.457031 -0.078125 3.285156 -0.0703125 3.140625 -0.0625 C 3.003906 -0.0507812 2.851562 -0.0390625 2.6875 -0.03125 C 2.53125 -0.03125 2.34375 -0.0234375 2.125 -0.015625 C 1.914062 -0.00390625 1.628906 0 1.265625 0 Z M 1.265625 -0.484375 "/></g></g></g><g fill="#ffffff" fill-opacity="1"><g transform="translate(86.008877, 43.022824)"><g><path d="M 1.71875 -13.84375 L 1.9375 -18.015625 C 2.4375 -18.035156 3.039062 -18.054688 3.75 -18.078125 C 4.46875 -18.097656 5.078125 -18.109375 5.578125 -18.109375 C 6.597656 -18.109375 7.546875 -18.085938 8.421875 -18.046875 C 9.304688 -18.015625 10.257812 -18 11.28125 -18 C 11.875 -18 12.457031 -18 13.03125 -18 C 13.613281 -18 14.191406 -18.003906 14.765625 -18.015625 L 5.328125 -0.8125 C 6.316406 -0.789062 7.144531 -0.773438 7.8125 -0.765625 C 8.488281 -0.753906 9.035156 -0.75 9.453125 -0.75 C 9.878906 -0.75 10.1875 -0.75 10.375 -0.75 C 10.570312 -0.75 10.675781 -0.75 10.6875 -0.75 C 11.875 -0.75 12.769531 -1.082031 13.375 -1.75 C 13.976562 -2.414062 14.351562 -3.347656 14.5 -4.546875 L 14.984375 -4.546875 L 14.734375 0 C 14.242188 0.0195312 13.738281 0.03125 13.21875 0.03125 C 12.695312 0.03125 12.1875 0.03125 11.6875 0.03125 C 11.082031 0.03125 10.421875 0.0234375 9.703125 0.015625 C 8.992188 0.00390625 8.296875 0 7.609375 0 C 6.921875 0 6.257812 -0.00390625 5.625 -0.015625 C 5 -0.0234375 4.460938 -0.03125 4.015625 -0.03125 C 3.796875 -0.03125 3.535156 -0.03125 3.234375 -0.03125 C 2.941406 -0.03125 2.644531 -0.0234375 2.34375 -0.015625 C 2.039062 -0.00390625 1.753906 0 1.484375 0 C 1.210938 0 0.988281 0 0.8125 0 L 10.265625 -17.265625 C 9.691406 -17.285156 9.210938 -17.300781 8.828125 -17.3125 C 8.441406 -17.320312 8.109375 -17.328125 7.828125 -17.328125 C 7.546875 -17.335938 7.296875 -17.34375 7.078125 -17.34375 C 6.867188 -17.34375 6.644531 -17.34375 6.40625 -17.34375 C 6 -17.34375 5.695312 -17.34375 5.5 -17.34375 C 5.3125 -17.34375 5.085938 -17.328125 4.828125 -17.296875 C 4.429688 -17.253906 4.078125 -17.132812 3.765625 -16.9375 C 3.460938 -16.738281 3.203125 -16.484375 2.984375 -16.171875 C 2.773438 -15.859375 2.601562 -15.5 2.46875 -15.09375 C 2.332031 -14.695312 2.242188 -14.28125 2.203125 -13.84375 Z M 1.71875 -13.84375 "/></g></g></g><g fill="#ffffff" fill-opacity="1"><g transform="translate(100.122039, 43.022824)"><g><path d="M 8.546875 -9.71875 C 9.347656 -9.71875 9.921875 -9.925781 10.265625 -10.34375 C 10.617188 -10.757812 10.796875 -11.332031 10.796875 -12.0625 L 11.28125 -12.0625 C 11.28125 -11.65625 11.273438 -11.304688 11.265625 -11.015625 C 11.265625 -10.734375 11.257812 -10.488281 11.25 -10.28125 C 11.238281 -10.070312 11.226562 -9.894531 11.21875 -9.75 C 11.207031 -9.601562 11.203125 -9.460938 11.203125 -9.328125 C 11.203125 -9.179688 11.207031 -9.039062 11.21875 -8.90625 C 11.226562 -8.769531 11.238281 -8.601562 11.25 -8.40625 C 11.257812 -8.207031 11.265625 -7.96875 11.265625 -7.6875 C 11.273438 -7.40625 11.28125 -7.0625 11.28125 -6.65625 L 10.796875 -6.65625 C 10.796875 -7.351562 10.617188 -7.90625 10.265625 -8.3125 C 9.921875 -8.726562 9.347656 -8.9375 8.546875 -8.9375 L 6.984375 -8.9375 L 6.984375 -3.53125 C 6.984375 -2.882812 7.023438 -2.367188 7.109375 -1.984375 C 7.203125 -1.597656 7.378906 -1.304688 7.640625 -1.109375 C 7.898438 -0.921875 8.257812 -0.800781 8.71875 -0.75 C 9.175781 -0.695312 9.769531 -0.671875 10.5 -0.671875 C 11.144531 -0.671875 11.742188 -0.710938 12.296875 -0.796875 C 12.847656 -0.878906 13.332031 -1.046875 13.75 -1.296875 C 14.175781 -1.546875 14.519531 -1.90625 14.78125 -2.375 C 15.050781 -2.851562 15.222656 -3.488281 15.296875 -4.28125 L 15.8125 -4.28125 L 15.59375 0 C 14.789062 0.0195312 14.054688 0.03125 13.390625 0.03125 C 12.722656 0.0390625 12.019531 0.046875 11.28125 0.046875 C 9.757812 0.046875 8.484375 0.0234375 7.453125 -0.015625 C 6.429688 -0.0546875 5.632812 -0.078125 5.0625 -0.078125 C 4.78125 -0.078125 4.507812 -0.0703125 4.25 -0.0625 C 3.988281 -0.0507812 3.707031 -0.0390625 3.40625 -0.03125 C 3.113281 -0.03125 2.773438 -0.0234375 2.390625 -0.015625 C 2.003906 -0.00390625 1.539062 0 1 0 L 1 -0.484375 C 1.28125 -0.484375 1.550781 -0.503906 1.8125 -0.546875 C 2.070312 -0.597656 2.300781 -0.6875 2.5 -0.8125 C 2.695312 -0.9375 2.851562 -1.109375 2.96875 -1.328125 C 3.09375 -1.554688 3.15625 -1.859375 3.15625 -2.234375 L 3.15625 -15.78125 C 3.15625 -16.15625 3.09375 -16.457031 2.96875 -16.6875 C 2.851562 -16.914062 2.695312 -17.09375 2.5 -17.21875 C 2.300781 -17.34375 2.070312 -17.425781 1.8125 -17.46875 C 1.550781 -17.507812 1.28125 -17.53125 1 -17.53125 L 1 -18.015625 C 1.539062 -18.015625 2 -18.007812 2.375 -18 C 2.75 -18 3.078125 -17.992188 3.359375 -17.984375 C 3.648438 -17.972656 3.921875 -17.960938 4.171875 -17.953125 C 4.421875 -17.941406 4.691406 -17.9375 4.984375 -17.9375 C 5.597656 -17.9375 6.382812 -17.960938 7.34375 -18.015625 C 8.300781 -18.078125 9.316406 -18.109375 10.390625 -18.109375 C 11.097656 -18.109375 11.75 -18.097656 12.34375 -18.078125 C 12.945312 -18.054688 13.609375 -18.035156 14.328125 -18.015625 L 14.5 -14 L 14 -14 C 13.945312 -14.6875 13.804688 -15.25 13.578125 -15.6875 C 13.359375 -16.125 13.0625 -16.46875 12.6875 -16.71875 C 12.3125 -16.976562 11.867188 -17.148438 11.359375 -17.234375 C 10.847656 -17.328125 10.273438 -17.375 9.640625 -17.375 C 9.335938 -17.375 8.984375 -17.359375 8.578125 -17.328125 C 8.171875 -17.304688 7.84375 -17.273438 7.59375 -17.234375 C 7.1875 -17.179688 6.984375 -16.941406 6.984375 -16.515625 L 6.984375 -9.71875 Z M 8.546875 -9.71875 "/></g></g></g><g fill="#ffffff" fill-opacity="1"><g transform="translate(114.881604, 43.022824)"><g><path d="M 11.125 0.046875 C 9.882812 0.046875 8.742188 0.0234375 7.703125 -0.015625 C 6.660156 -0.0546875 5.816406 -0.078125 5.171875 -0.078125 C 4.867188 -0.078125 4.582031 -0.0703125 4.3125 -0.0625 C 4.039062 -0.0507812 3.75 -0.0390625 3.4375 -0.03125 C 3.125 -0.03125 2.773438 -0.0234375 2.390625 -0.015625 C 2.003906 -0.00390625 1.539062 0 1 0 L 1 -0.484375 C 1.28125 -0.484375 1.550781 -0.503906 1.8125 -0.546875 C 2.070312 -0.597656 2.300781 -0.6875 2.5 -0.8125 C 2.695312 -0.9375 2.851562 -1.109375 2.96875 -1.328125 C 3.09375 -1.554688 3.15625 -1.859375 3.15625 -2.234375 L 3.15625 -15.78125 C 3.15625 -16.15625 3.09375 -16.457031 2.96875 -16.6875 C 2.851562 -16.914062 2.695312 -17.09375 2.5 -17.21875 C 2.300781 -17.34375 2.070312 -17.425781 1.8125 -17.46875 C 1.550781 -17.507812 1.28125 -17.53125 1 -17.53125 L 1 -18.015625 C 1.539062 -18.015625 2 -18.007812 2.375 -18 C 2.75 -18 3.085938 -17.988281 3.390625 -17.96875 C 3.703125 -17.945312 3.984375 -17.929688 4.234375 -17.921875 C 4.484375 -17.910156 4.757812 -17.90625 5.0625 -17.90625 C 5.351562 -17.90625 5.628906 -17.910156 5.890625 -17.921875 C 6.148438 -17.929688 6.429688 -17.945312 6.734375 -17.96875 C 7.035156 -17.988281 7.375 -18 7.75 -18 C 8.132812 -18.007812 8.59375 -18.015625 9.125 -18.015625 L 9.125 -17.53125 C 8.84375 -17.53125 8.570312 -17.507812 8.3125 -17.46875 C 8.050781 -17.425781 7.820312 -17.34375 7.625 -17.21875 C 7.425781 -17.09375 7.269531 -16.914062 7.15625 -16.6875 C 7.039062 -16.457031 6.984375 -16.15625 6.984375 -15.78125 L 6.984375 -3.046875 C 6.984375 -2.484375 7.066406 -2.046875 7.234375 -1.734375 C 7.398438 -1.421875 7.644531 -1.179688 7.96875 -1.015625 C 8.289062 -0.859375 8.679688 -0.757812 9.140625 -0.71875 C 9.597656 -0.6875 10.113281 -0.671875 10.6875 -0.671875 C 12 -0.671875 13.03125 -0.941406 13.78125 -1.484375 C 14.539062 -2.023438 15.019531 -3.003906 15.21875 -4.421875 L 15.703125 -4.421875 L 15.4375 0 C 14.75 0.0195312 14.03125 0.03125 13.28125 0.03125 C 12.53125 0.0390625 11.8125 0.046875 11.125 0.046875 Z M 11.125 0.046875 "/></g></g></g><g fill="#ffffff" fill-opacity="1"><g transform="translate(129.264102, 43.022824)"><g><path d="M 1.265625 -0.484375 C 1.554688 -0.484375 1.832031 -0.503906 2.09375 -0.546875 C 2.351562 -0.597656 2.582031 -0.6875 2.78125 -0.8125 C 2.976562 -0.9375 3.132812 -1.109375 3.25 -1.328125 C 3.363281 -1.554688 3.421875 -1.859375 3.421875 -2.234375 L 3.421875 -15.734375 L 2.828125 -16.484375 C 2.578125 -16.804688 2.300781 -17.0625 2 -17.25 C 1.707031 -17.4375 1.328125 -17.53125 0.859375 -17.53125 L 0.859375 -18.015625 C 1.179688 -18.015625 1.457031 -18.007812 1.6875 -18 C 1.925781 -18 2.140625 -17.992188 2.328125 -17.984375 C 2.515625 -17.972656 2.6875 -17.960938 2.84375 -17.953125 C 3 -17.941406 3.171875 -17.9375 3.359375 -17.9375 C 3.722656 -17.9375 4.171875 -17.945312 4.703125 -17.96875 C 5.242188 -18 5.734375 -18.015625 6.171875 -18.015625 L 16.5625 -5.28125 L 16.5625 -15.78125 C 16.5625 -16.15625 16.503906 -16.457031 16.390625 -16.6875 C 16.273438 -16.914062 16.117188 -17.09375 15.921875 -17.21875 C 15.722656 -17.34375 15.492188 -17.425781 15.234375 -17.46875 C 14.972656 -17.507812 14.695312 -17.53125 14.40625 -17.53125 L 14.40625 -18.015625 C 14.769531 -18.015625 15.0625 -18.007812 15.28125 -18 C 15.507812 -18 15.703125 -17.992188 15.859375 -17.984375 C 16.023438 -17.972656 16.179688 -17.960938 16.328125 -17.953125 C 16.472656 -17.941406 16.640625 -17.9375 16.828125 -17.9375 C 17.023438 -17.9375 17.207031 -17.941406 17.375 -17.953125 C 17.550781 -17.960938 17.734375 -17.972656 17.921875 -17.984375 C 18.109375 -17.992188 18.328125 -18 18.578125 -18 C 18.835938 -18.007812 19.144531 -18.015625 19.5 -18.015625 L 19.5 -17.53125 C 19.21875 -17.53125 18.945312 -17.507812 18.6875 -17.46875 C 18.425781 -17.425781 18.195312 -17.34375 18 -17.21875 C 17.800781 -17.09375 17.640625 -16.914062 17.515625 -16.6875 C 17.398438 -16.457031 17.34375 -16.15625 17.34375 -15.78125 L 17.34375 0.328125 L 16.515625 0.328125 L 4.203125 -14.890625 L 4.203125 -2.234375 C 4.203125 -1.859375 4.257812 -1.554688 4.375 -1.328125 C 4.488281 -1.109375 4.644531 -0.9375 4.84375 -0.8125 C 5.039062 -0.6875 5.269531 -0.597656 5.53125 -0.546875 C 5.789062 -0.503906 6.066406 -0.484375 6.359375 -0.484375 L 6.359375 0 C 5.992188 0 5.6875 -0.00390625 5.4375 -0.015625 C 5.1875 -0.0234375 4.960938 -0.03125 4.765625 -0.03125 C 4.566406 -0.0390625 4.378906 -0.0507812 4.203125 -0.0625 C 4.035156 -0.0703125 3.851562 -0.078125 3.65625 -0.078125 C 3.457031 -0.078125 3.285156 -0.0703125 3.140625 -0.0625 C 3.003906 -0.0507812 2.851562 -0.0390625 2.6875 -0.03125 C 2.53125 -0.03125 2.34375 -0.0234375 2.125 -0.015625 C 1.914062 -0.00390625 1.628906 0 1.265625 0 Z M 1.265625 -0.484375 "/></g></g></g><g fill="#ffffff" fill-opacity="1"><g transform="translate(147.902084, 43.022824)"><g><path d="M 17.21875 -6.4375 C 17.21875 -5.238281 17.054688 -4.210938 16.734375 -3.359375 C 16.421875 -2.503906 15.972656 -1.804688 15.390625 -1.265625 C 14.804688 -0.722656 14.101562 -0.328125 13.28125 -0.078125 C 12.46875 0.171875 11.550781 0.296875 10.53125 0.296875 C 9.664062 0.296875 8.78125 0.21875 7.875 0.0625 C 6.96875 -0.0820312 6.140625 -0.390625 5.390625 -0.859375 C 4.648438 -1.328125 4.046875 -1.992188 3.578125 -2.859375 C 3.109375 -3.734375 2.875 -4.890625 2.875 -6.328125 L 2.875 -15.78125 C 2.875 -16.15625 2.816406 -16.457031 2.703125 -16.6875 C 2.585938 -16.914062 2.429688 -17.09375 2.234375 -17.21875 C 2.035156 -17.34375 1.804688 -17.425781 1.546875 -17.46875 C 1.285156 -17.507812 1.015625 -17.53125 0.734375 -17.53125 L 0.734375 -18.015625 C 1.265625 -18.015625 1.707031 -18.007812 2.0625 -18 C 2.414062 -18 2.722656 -17.988281 2.984375 -17.96875 C 3.253906 -17.945312 3.5 -17.929688 3.71875 -17.921875 C 3.945312 -17.910156 4.21875 -17.90625 4.53125 -17.90625 C 4.8125 -17.90625 5.09375 -17.910156 5.375 -17.921875 C 5.664062 -17.929688 5.984375 -17.945312 6.328125 -17.96875 C 6.671875 -17.988281 7.039062 -18 7.4375 -18 C 7.84375 -18.007812 8.316406 -18.015625 8.859375 -18.015625 L 8.859375 -17.53125 C 8.578125 -17.53125 8.304688 -17.507812 8.046875 -17.46875 C 7.785156 -17.425781 7.554688 -17.34375 7.359375 -17.21875 C 7.160156 -17.09375 7 -16.914062 6.875 -16.6875 C 6.757812 -16.457031 6.703125 -16.15625 6.703125 -15.78125 L 6.703125 -6.328125 C 6.703125 -5.410156 6.773438 -4.601562 6.921875 -3.90625 C 7.066406 -3.207031 7.3125 -2.617188 7.65625 -2.140625 C 8.007812 -1.660156 8.488281 -1.296875 9.09375 -1.046875 C 9.695312 -0.796875 10.457031 -0.671875 11.375 -0.671875 C 13.019531 -0.671875 14.273438 -1.175781 15.140625 -2.1875 C 16.003906 -3.207031 16.4375 -4.585938 16.4375 -6.328125 L 16.4375 -15.78125 C 16.4375 -16.15625 16.375 -16.457031 16.25 -16.6875 C 16.132812 -16.914062 15.976562 -17.09375 15.78125 -17.21875 C 15.582031 -17.34375 15.351562 -17.425781 15.09375 -17.46875 C 14.832031 -17.507812 14.5625 -17.53125 14.28125 -17.53125 L 14.28125 -18.015625 C 14.632812 -18.015625 14.925781 -18.007812 15.15625 -18 C 15.394531 -18 15.601562 -17.992188 15.78125 -17.984375 C 15.96875 -17.972656 16.140625 -17.960938 16.296875 -17.953125 C 16.460938 -17.941406 16.640625 -17.9375 16.828125 -17.9375 C 17.023438 -17.9375 17.203125 -17.941406 17.359375 -17.953125 C 17.515625 -17.960938 17.679688 -17.972656 17.859375 -17.984375 C 18.035156 -17.992188 18.238281 -18 18.46875 -18 C 18.707031 -18.007812 19.007812 -18.015625 19.375 -18.015625 L 19.375 -17.53125 C 19.082031 -17.53125 18.804688 -17.507812 18.546875 -17.46875 C 18.285156 -17.425781 18.054688 -17.34375 17.859375 -17.21875 C 17.660156 -17.09375 17.503906 -16.914062 17.390625 -16.6875 C 17.273438 -16.457031 17.21875 -16.15625 17.21875 -15.78125 Z M 17.21875 -6.4375 "/></g></g></g><g fill="#ffffff" fill-opacity="1"><g transform="translate(166.082196, 43.022824)"><g><path d="M 4.65625 -0.484375 C 4.945312 -0.484375 5.222656 -0.503906 5.484375 -0.546875 C 5.742188 -0.597656 5.972656 -0.6875 6.171875 -0.8125 C 6.367188 -0.9375 6.523438 -1.109375 6.640625 -1.328125 C 6.753906 -1.554688 6.8125 -1.859375 6.8125 -2.234375 L 6.8125 -17.296875 C 5.914062 -17.328125 5.300781 -17.347656 4.96875 -17.359375 C 4.632812 -17.367188 4.425781 -17.375 4.34375 -17.375 C 3.28125 -17.351562 2.476562 -17 1.9375 -16.3125 C 1.394531 -15.632812 1.09375 -14.785156 1.03125 -13.765625 L 0.53125 -13.765625 L 0.703125 -18.078125 C 1.109375 -18.097656 1.503906 -18.109375 1.890625 -18.109375 C 2.285156 -18.109375 2.632812 -18.109375 2.9375 -18.109375 C 3.65625 -18.109375 4.289062 -18.101562 4.84375 -18.09375 C 5.40625 -18.082031 5.910156 -18.070312 6.359375 -18.0625 C 6.804688 -18.050781 7.207031 -18.039062 7.5625 -18.03125 C 7.925781 -18.019531 8.28125 -18.015625 8.625 -18.015625 C 8.957031 -18.015625 9.304688 -18.019531 9.671875 -18.03125 C 10.046875 -18.039062 10.460938 -18.050781 10.921875 -18.0625 C 11.378906 -18.070312 11.890625 -18.082031 12.453125 -18.09375 C 13.023438 -18.101562 13.6875 -18.109375 14.4375 -18.109375 C 14.757812 -18.109375 15.117188 -18.109375 15.515625 -18.109375 C 15.910156 -18.109375 16.316406 -18.097656 16.734375 -18.078125 L 16.921875 -13.765625 L 16.4375 -13.765625 C 16.394531 -14.210938 16.300781 -14.648438 16.15625 -15.078125 C 16.019531 -15.515625 15.8125 -15.898438 15.53125 -16.234375 C 15.25 -16.578125 14.90625 -16.859375 14.5 -17.078125 C 14.101562 -17.296875 13.632812 -17.40625 13.09375 -17.40625 C 13.039062 -17.40625 12.984375 -17.40625 12.921875 -17.40625 C 12.859375 -17.40625 12.738281 -17.398438 12.5625 -17.390625 C 12.394531 -17.378906 12.15625 -17.363281 11.84375 -17.34375 C 11.539062 -17.332031 11.140625 -17.316406 10.640625 -17.296875 L 10.640625 -2.234375 C 10.640625 -1.859375 10.695312 -1.554688 10.8125 -1.328125 C 10.925781 -1.109375 11.082031 -0.9375 11.28125 -0.8125 C 11.476562 -0.6875 11.707031 -0.597656 11.96875 -0.546875 C 12.226562 -0.503906 12.503906 -0.484375 12.796875 -0.484375 L 12.796875 0 C 12.253906 0 11.789062 -0.00390625 11.40625 -0.015625 C 11.019531 -0.0234375 10.675781 -0.0351562 10.375 -0.046875 C 10.082031 -0.0664062 9.800781 -0.0820312 9.53125 -0.09375 C 9.257812 -0.101562 8.984375 -0.109375 8.703125 -0.109375 C 8.398438 -0.109375 8.117188 -0.101562 7.859375 -0.09375 C 7.609375 -0.0820312 7.332031 -0.0664062 7.03125 -0.046875 C 6.738281 -0.0351562 6.40625 -0.0234375 6.03125 -0.015625 C 5.65625 -0.00390625 5.195312 0 4.65625 0 Z M 4.65625 -0.484375 "/></g></g></g><g fill="#ffffff" fill-opacity="1"><g transform="translate(181.811359, 43.022824)"><g><path d="M 11.71875 -18 C 11.71875 -17.6875 11.710938 -17.363281 11.703125 -17.03125 C 11.691406 -16.707031 11.6875 -16.382812 11.6875 -16.0625 C 11.6875 -15.894531 11.695312 -15.6875 11.71875 -15.4375 C 11.738281 -15.1875 11.75 -14.925781 11.75 -14.65625 C 11.757812 -14.382812 11.773438 -14.113281 11.796875 -13.84375 C 11.816406 -13.570312 11.828125 -13.347656 11.828125 -13.171875 L 11.28125 -13.171875 C 11.226562 -13.691406 11.085938 -14.21875 10.859375 -14.75 C 10.640625 -15.28125 10.34375 -15.757812 9.96875 -16.1875 C 9.59375 -16.613281 9.15625 -16.960938 8.65625 -17.234375 C 8.164062 -17.503906 7.625 -17.640625 7.03125 -17.640625 C 6.539062 -17.640625 6.125 -17.554688 5.78125 -17.390625 C 5.445312 -17.234375 5.171875 -17.03125 4.953125 -16.78125 C 4.742188 -16.53125 4.585938 -16.25 4.484375 -15.9375 C 4.390625 -15.632812 4.34375 -15.332031 4.34375 -15.03125 C 4.34375 -14.4375 4.5 -13.925781 4.8125 -13.5 C 5.125 -13.082031 5.515625 -12.710938 5.984375 -12.390625 C 6.453125 -12.066406 6.953125 -11.78125 7.484375 -11.53125 C 8.023438 -11.28125 8.53125 -11.046875 9 -10.828125 C 9.59375 -10.535156 10.144531 -10.21875 10.65625 -9.875 C 11.164062 -9.539062 11.601562 -9.15625 11.96875 -8.71875 C 12.34375 -8.289062 12.632812 -7.796875 12.84375 -7.234375 C 13.0625 -6.671875 13.171875 -6.007812 13.171875 -5.25 C 13.171875 -4.425781 13.015625 -3.671875 12.703125 -2.984375 C 12.390625 -2.304688 11.957031 -1.71875 11.40625 -1.21875 C 10.863281 -0.726562 10.207031 -0.347656 9.4375 -0.078125 C 8.675781 0.191406 7.859375 0.328125 6.984375 0.328125 C 6.078125 0.328125 5.265625 0.1875 4.546875 -0.09375 C 3.828125 -0.375 3.128906 -0.765625 2.453125 -1.265625 L 1.828125 -0.21875 L 1.34375 -0.21875 C 1.34375 -0.769531 1.351562 -1.207031 1.375 -1.53125 C 1.394531 -1.851562 1.40625 -2.195312 1.40625 -2.5625 C 1.40625 -2.9375 1.394531 -3.40625 1.375 -3.96875 C 1.351562 -4.539062 1.34375 -5.113281 1.34375 -5.6875 L 1.890625 -5.6875 C 1.921875 -5.050781 2.0625 -4.421875 2.3125 -3.796875 C 2.5625 -3.171875 2.894531 -2.601562 3.3125 -2.09375 C 3.738281 -1.59375 4.25 -1.191406 4.84375 -0.890625 C 5.4375 -0.585938 6.101562 -0.4375 6.84375 -0.4375 C 7.46875 -0.4375 8.003906 -0.53125 8.453125 -0.71875 C 8.898438 -0.90625 9.269531 -1.144531 9.5625 -1.4375 C 9.863281 -1.738281 10.082031 -2.078125 10.21875 -2.453125 C 10.351562 -2.828125 10.421875 -3.210938 10.421875 -3.609375 C 10.421875 -4.148438 10.316406 -4.613281 10.109375 -5 C 9.910156 -5.382812 9.632812 -5.726562 9.28125 -6.03125 C 8.925781 -6.332031 8.519531 -6.601562 8.0625 -6.84375 C 7.601562 -7.09375 7.125 -7.332031 6.625 -7.5625 C 6.050781 -7.832031 5.472656 -8.113281 4.890625 -8.40625 C 4.304688 -8.707031 3.78125 -9.070312 3.3125 -9.5 C 2.84375 -9.9375 2.457031 -10.460938 2.15625 -11.078125 C 1.863281 -11.703125 1.71875 -12.460938 1.71875 -13.359375 C 1.71875 -14.097656 1.863281 -14.769531 2.15625 -15.375 C 2.457031 -15.988281 2.847656 -16.519531 3.328125 -16.96875 C 3.816406 -17.414062 4.367188 -17.757812 4.984375 -18 C 5.609375 -18.25 6.253906 -18.375 6.921875 -18.375 C 7.609375 -18.375 8.265625 -18.25 8.890625 -18 C 9.515625 -17.757812 10.109375 -17.414062 10.671875 -16.96875 L 11.234375 -18 Z M 11.71875 -18 "/></g></g></g></svg>