<svg xmlns="http://www.w3.org/2000/svg" xmlns:xlink="http://www.w3.org/1999/xlink" width="135" zoomAndPan="magnify" viewBox="0 0 101.25 30.000001" height="40" preserveAspectRatio="xMidYMid meet" version="1.0"><defs><g/></defs><g fill="#ffffff" fill-opacity="1"><g transform="translate(41.670606, 23.808861)"><g><path d="M 0.109375 -1.78125 L 0.109375 -1.828125 L 1 -1.828125 C 1.15625 -1.828125 1.265625 -1.835938 1.328125 -1.859375 C 1.304688 -1.773438 1.296875 -1.664062 1.296875 -1.53125 L 1.296875 -1.390625 L 1.234375 -1.390625 L 1.1875 -1.6875 C 1.1875 -1.726562 1.160156 -1.75 1.109375 -1.75 L 0.515625 -1.75 L 0.515625 -0.953125 L 1.09375 -0.953125 C 1.113281 -0.953125 1.125 -0.96875 1.125 -1 L 1.140625 -1.171875 L 1.1875 -1.171875 L 1.1875 -0.65625 L 1.140625 -0.65625 L 1.125 -0.828125 C 1.125 -0.859375 1.113281 -0.875 1.09375 -0.875 L 0.515625 -0.875 L 0.515625 -0.09375 C 0.515625 -0.0625 0.53125 -0.046875 0.5625 -0.046875 L 0.8125 -0.046875 L 0.8125 0 L 0.109375 0 L 0.109375 -0.046875 L 0.234375 -0.046875 C 0.265625 -0.046875 0.28125 -0.0625 0.28125 -0.09375 L 0.28125 -1.75 C 0.28125 -1.769531 0.265625 -1.78125 0.234375 -1.78125 Z M 0.109375 -1.78125 "/></g></g></g><g fill="#ffffff" fill-opacity="1"><g transform="translate(43.229645, 23.808861)"><g><path d="M 1.40625 -0.0625 C 1.4375 -0.0625 1.457031 -0.0703125 1.46875 -0.09375 C 1.488281 -0.125 1.5 -0.15625 1.5 -0.1875 C 1.5 -0.21875 1.5 -0.25 1.5 -0.28125 L 1.546875 -0.28125 C 1.554688 -0.257812 1.5625 -0.226562 1.5625 -0.1875 C 1.5625 -0.125 1.539062 -0.0703125 1.5 -0.03125 C 1.457031 0.0078125 1.40625 0.03125 1.34375 0.03125 C 1.175781 0.03125 1.09375 -0.0664062 1.09375 -0.265625 C 1.09375 -0.460938 1.066406 -0.609375 1.015625 -0.703125 C 0.960938 -0.796875 0.859375 -0.84375 0.703125 -0.84375 L 0.515625 -0.84375 L 0.515625 -0.09375 C 0.515625 -0.0625 0.53125 -0.046875 0.5625 -0.046875 L 0.75 -0.046875 L 0.75 0 L 0.109375 0 L 0.109375 -0.046875 L 0.234375 -0.046875 C 0.265625 -0.046875 0.28125 -0.0625 0.28125 -0.09375 L 0.28125 -1.75 C 0.28125 -1.769531 0.265625 -1.78125 0.234375 -1.78125 L 0.109375 -1.78125 L 0.109375 -1.828125 L 0.828125 -1.828125 C 0.984375 -1.828125 1.117188 -1.78125 1.234375 -1.6875 C 1.347656 -1.601562 1.40625 -1.488281 1.40625 -1.34375 C 1.40625 -1.21875 1.367188 -1.113281 1.296875 -1.03125 C 1.222656 -0.945312 1.125 -0.890625 1 -0.859375 C 1.144531 -0.816406 1.234375 -0.734375 1.265625 -0.609375 C 1.296875 -0.515625 1.3125 -0.398438 1.3125 -0.265625 C 1.3125 -0.128906 1.34375 -0.0625 1.40625 -0.0625 Z M 0.8125 -1.75 L 0.515625 -1.75 L 0.515625 -0.9375 L 0.8125 -0.9375 C 0.925781 -0.9375 1.015625 -0.972656 1.078125 -1.046875 C 1.148438 -1.128906 1.1875 -1.222656 1.1875 -1.328125 C 1.1875 -1.441406 1.148438 -1.539062 1.078125 -1.625 C 1.015625 -1.707031 0.925781 -1.75 0.8125 -1.75 Z M 0.8125 -1.75 "/></g></g></g><g fill="#ffffff" fill-opacity="1"><g transform="translate(44.971591, 23.808861)"><g><path d="M 0.109375 0 L 0.109375 -0.046875 L 0.234375 -0.046875 C 0.265625 -0.046875 0.28125 -0.0625 0.28125 -0.09375 L 0.28125 -1.75 C 0.28125 -1.769531 0.265625 -1.78125 0.234375 -1.78125 L 0.109375 -1.78125 L 0.109375 -1.828125 L 1.015625 -1.828125 C 1.171875 -1.828125 1.28125 -1.835938 1.34375 -1.859375 C 1.320312 -1.773438 1.3125 -1.664062 1.3125 -1.53125 L 1.3125 -1.390625 L 1.25 -1.390625 L 1.203125 -1.6875 C 1.203125 -1.726562 1.175781 -1.75 1.125 -1.75 L 0.515625 -1.75 L 0.515625 -0.953125 L 1.09375 -0.953125 C 1.125 -0.953125 1.140625 -0.96875 1.140625 -1 L 1.15625 -1.171875 L 1.203125 -1.171875 L 1.203125 -0.65625 L 1.15625 -0.65625 L 1.140625 -0.828125 C 1.140625 -0.859375 1.125 -0.875 1.09375 -0.875 L 0.515625 -0.875 L 0.515625 -0.078125 L 1.171875 -0.078125 C 1.222656 -0.078125 1.25 -0.0976562 1.25 -0.140625 L 1.296875 -0.484375 L 1.359375 -0.484375 L 1.359375 -0.34375 C 1.359375 -0.175781 1.367188 -0.0507812 1.390625 0.03125 C 1.328125 0.0078125 1.21875 0 1.0625 0 Z M 0.109375 0 "/></g></g></g><g fill="#ffffff" fill-opacity="1"><g transform="translate(46.675793, 23.808861)"><g><path d="M 0.109375 0 L 0.109375 -0.046875 L 0.234375 -0.046875 C 0.265625 -0.046875 0.28125 -0.0625 0.28125 -0.09375 L 0.28125 -1.75 C 0.28125 -1.769531 0.265625 -1.78125 0.234375 -1.78125 L 0.109375 -1.78125 L 0.109375 -1.828125 L 1.015625 -1.828125 C 1.171875 -1.828125 1.28125 -1.835938 1.34375 -1.859375 C 1.320312 -1.773438 1.3125 -1.664062 1.3125 -1.53125 L 1.3125 -1.390625 L 1.25 -1.390625 L 1.203125 -1.6875 C 1.203125 -1.726562 1.175781 -1.75 1.125 -1.75 L 0.515625 -1.75 L 0.515625 -0.953125 L 1.09375 -0.953125 C 1.125 -0.953125 1.140625 -0.96875 1.140625 -1 L 1.15625 -1.171875 L 1.203125 -1.171875 L 1.203125 -0.65625 L 1.15625 -0.65625 L 1.140625 -0.828125 C 1.140625 -0.859375 1.125 -0.875 1.09375 -0.875 L 0.515625 -0.875 L 0.515625 -0.078125 L 1.171875 -0.078125 C 1.222656 -0.078125 1.25 -0.0976562 1.25 -0.140625 L 1.296875 -0.484375 L 1.359375 -0.484375 L 1.359375 -0.34375 C 1.359375 -0.175781 1.367188 -0.0507812 1.390625 0.03125 C 1.328125 0.0078125 1.21875 0 1.0625 0 Z M 0.109375 0 "/></g></g></g><g fill="#ffffff" fill-opacity="1"><g transform="translate(48.379996, 23.808861)"><g><path d="M 0.109375 0 L 0.109375 -0.046875 L 0.234375 -0.046875 C 0.265625 -0.046875 0.28125 -0.0625 0.28125 -0.09375 L 0.28125 -1.75 C 0.28125 -1.769531 0.265625 -1.78125 0.234375 -1.78125 L 0.109375 -1.78125 L 0.109375 -1.828125 L 0.6875 -1.828125 L 0.6875 -1.78125 L 0.5625 -1.78125 C 0.53125 -1.78125 0.515625 -1.769531 0.515625 -1.75 L 0.515625 -0.078125 L 1.09375 -0.078125 C 1.144531 -0.078125 1.171875 -0.0976562 1.171875 -0.140625 L 1.21875 -0.484375 L 1.28125 -0.484375 L 1.28125 -0.34375 C 1.28125 -0.175781 1.289062 -0.0507812 1.3125 0.03125 C 1.25 0.0078125 1.140625 0 0.984375 0 Z M 0.109375 0 "/></g></g></g><g fill="#ffffff" fill-opacity="1"><g transform="translate(49.895489, 23.808861)"><g><path d="M 1.671875 0 L 1.078125 0 L 1.078125 -0.046875 L 1.265625 -0.046875 L 1.0625 -0.609375 L 0.421875 -0.609375 L 0.21875 -0.046875 L 0.40625 -0.046875 L 0.40625 0 L -0.03125 0 L -0.03125 -0.046875 L 0.078125 -0.046875 C 0.109375 -0.046875 0.128906 -0.0625 0.140625 -0.09375 L 0.765625 -1.828125 L 0.875 -1.828125 L 1.515625 -0.09375 C 1.523438 -0.0625 1.539062 -0.046875 1.5625 -0.046875 L 1.671875 -0.046875 Z M 0.75 -1.484375 L 0.453125 -0.6875 L 1.03125 -0.6875 Z M 0.75 -1.484375 "/></g></g></g><g fill="#ffffff" fill-opacity="1"><g transform="translate(51.741952, 23.808861)"><g><path d="M 1.46875 0 L 0.375 -1.625 L 0.375 -0.09375 C 0.375 -0.0625 0.390625 -0.046875 0.421875 -0.046875 L 0.5625 -0.046875 L 0.5625 0 L 0.109375 0 L 0.109375 -0.046875 L 0.234375 -0.046875 C 0.265625 -0.046875 0.28125 -0.0625 0.28125 -0.09375 L 0.28125 -1.75 C 0.28125 -1.769531 0.265625 -1.78125 0.234375 -1.78125 L 0.109375 -1.78125 L 0.109375 -1.828125 L 0.53125 -1.828125 L 1.46875 -0.453125 L 1.46875 -1.734375 C 1.46875 -1.765625 1.453125 -1.78125 1.421875 -1.78125 L 1.28125 -1.78125 L 1.28125 -1.828125 L 1.734375 -1.828125 L 1.734375 -1.78125 L 1.609375 -1.78125 C 1.578125 -1.78125 1.5625 -1.769531 1.5625 -1.75 L 1.5625 0 Z M 1.46875 0 "/></g></g></g><g fill="#ffffff" fill-opacity="1"><g transform="translate(53.771318, 23.808861)"><g><path d="M 1.453125 0 L 1.453125 -0.046875 C 1.441406 -0.0859375 1.425781 -0.109375 1.40625 -0.109375 C 1.382812 -0.109375 1.351562 -0.09375 1.3125 -0.0625 C 1.1875 0 1.0625 0.03125 0.9375 0.03125 C 0.6875 0.03125 0.484375 -0.0507812 0.328125 -0.21875 C 0.179688 -0.382812 0.109375 -0.613281 0.109375 -0.90625 C 0.109375 -1.207031 0.179688 -1.441406 0.328125 -1.609375 C 0.484375 -1.773438 0.6875 -1.859375 0.9375 -1.859375 C 1.0625 -1.859375 1.1875 -1.828125 1.3125 -1.765625 C 1.351562 -1.742188 1.382812 -1.734375 1.40625 -1.734375 C 1.425781 -1.734375 1.441406 -1.753906 1.453125 -1.796875 L 1.453125 -1.84375 L 1.5 -1.84375 L 1.5 -1.34375 L 1.453125 -1.34375 C 1.429688 -1.488281 1.375 -1.597656 1.28125 -1.671875 C 1.1875 -1.742188 1.070312 -1.78125 0.9375 -1.78125 C 0.757812 -1.78125 0.613281 -1.703125 0.5 -1.546875 C 0.394531 -1.390625 0.34375 -1.175781 0.34375 -0.90625 C 0.34375 -0.644531 0.394531 -0.4375 0.5 -0.28125 C 0.613281 -0.125 0.757812 -0.046875 0.9375 -0.046875 C 1.070312 -0.046875 1.1875 -0.0820312 1.28125 -0.15625 C 1.375 -0.226562 1.429688 -0.335938 1.453125 -0.484375 L 1.5 -0.484375 L 1.5 0 Z M 1.453125 0 "/></g></g></g><g fill="#ffffff" fill-opacity="1"><g transform="translate(55.609069, 23.808861)"><g><path d="M 0.109375 0 L 0.109375 -0.046875 L 0.234375 -0.046875 C 0.265625 -0.046875 0.28125 -0.0625 0.28125 -0.09375 L 0.28125 -1.75 C 0.28125 -1.769531 0.265625 -1.78125 0.234375 -1.78125 L 0.109375 -1.78125 L 0.109375 -1.828125 L 1.015625 -1.828125 C 1.171875 -1.828125 1.28125 -1.835938 1.34375 -1.859375 C 1.320312 -1.773438 1.3125 -1.664062 1.3125 -1.53125 L 1.3125 -1.390625 L 1.25 -1.390625 L 1.203125 -1.6875 C 1.203125 -1.726562 1.175781 -1.75 1.125 -1.75 L 0.515625 -1.75 L 0.515625 -0.953125 L 1.09375 -0.953125 C 1.125 -0.953125 1.140625 -0.96875 1.140625 -1 L 1.15625 -1.171875 L 1.203125 -1.171875 L 1.203125 -0.65625 L 1.15625 -0.65625 L 1.140625 -0.828125 C 1.140625 -0.859375 1.125 -0.875 1.09375 -0.875 L 0.515625 -0.875 L 0.515625 -0.078125 L 1.171875 -0.078125 C 1.222656 -0.078125 1.25 -0.0976562 1.25 -0.140625 L 1.296875 -0.484375 L 1.359375 -0.484375 L 1.359375 -0.34375 C 1.359375 -0.175781 1.367188 -0.0507812 1.390625 0.03125 C 1.328125 0.0078125 1.21875 0 1.0625 0 Z M 0.109375 0 "/></g></g></g><g fill="#ffffff" fill-opacity="1"><g transform="translate(57.31327, 23.808861)"><g><path d="M 1.40625 -0.0625 C 1.4375 -0.0625 1.457031 -0.0703125 1.46875 -0.09375 C 1.488281 -0.125 1.5 -0.15625 1.5 -0.1875 C 1.5 -0.21875 1.5 -0.25 1.5 -0.28125 L 1.546875 -0.28125 C 1.554688 -0.257812 1.5625 -0.226562 1.5625 -0.1875 C 1.5625 -0.125 1.539062 -0.0703125 1.5 -0.03125 C 1.457031 0.0078125 1.40625 0.03125 1.34375 0.03125 C 1.175781 0.03125 1.09375 -0.0664062 1.09375 -0.265625 C 1.09375 -0.460938 1.066406 -0.609375 1.015625 -0.703125 C 0.960938 -0.796875 0.859375 -0.84375 0.703125 -0.84375 L 0.515625 -0.84375 L 0.515625 -0.09375 C 0.515625 -0.0625 0.53125 -0.046875 0.5625 -0.046875 L 0.75 -0.046875 L 0.75 0 L 0.109375 0 L 0.109375 -0.046875 L 0.234375 -0.046875 C 0.265625 -0.046875 0.28125 -0.0625 0.28125 -0.09375 L 0.28125 -1.75 C 0.28125 -1.769531 0.265625 -1.78125 0.234375 -1.78125 L 0.109375 -1.78125 L 0.109375 -1.828125 L 0.828125 -1.828125 C 0.984375 -1.828125 1.117188 -1.78125 1.234375 -1.6875 C 1.347656 -1.601562 1.40625 -1.488281 1.40625 -1.34375 C 1.40625 -1.21875 1.367188 -1.113281 1.296875 -1.03125 C 1.222656 -0.945312 1.125 -0.890625 1 -0.859375 C 1.144531 -0.816406 1.234375 -0.734375 1.265625 -0.609375 C 1.296875 -0.515625 1.3125 -0.398438 1.3125 -0.265625 C 1.3125 -0.128906 1.34375 -0.0625 1.40625 -0.0625 Z M 0.8125 -1.75 L 0.515625 -1.75 L 0.515625 -0.9375 L 0.8125 -0.9375 C 0.925781 -0.9375 1.015625 -0.972656 1.078125 -1.046875 C 1.148438 -1.128906 1.1875 -1.222656 1.1875 -1.328125 C 1.1875 -1.441406 1.148438 -1.539062 1.078125 -1.625 C 1.015625 -1.707031 0.925781 -1.75 0.8125 -1.75 Z M 0.8125 -1.75 "/></g></g></g><g fill="#ffffff" fill-opacity="1"><g transform="translate(9.324706, 19.1637)"><g><path d="M 5.171875 -7.765625 C 5.410156 -7.765625 5.613281 -7.757812 5.78125 -7.75 C 5.957031 -7.75 6.113281 -7.742188 6.25 -7.734375 C 6.394531 -7.734375 6.523438 -7.726562 6.640625 -7.71875 C 6.765625 -7.71875 6.894531 -7.71875 7.03125 -7.71875 C 7.144531 -7.71875 7.253906 -7.71875 7.359375 -7.71875 C 7.460938 -7.726562 7.570312 -7.734375 7.6875 -7.734375 C 7.8125 -7.742188 7.945312 -7.75 8.09375 -7.75 C 8.25 -7.757812 8.445312 -7.765625 8.6875 -7.765625 L 8.6875 -7.5625 C 8.5625 -7.5625 8.441406 -7.550781 8.328125 -7.53125 C 8.210938 -7.507812 8.113281 -7.472656 8.03125 -7.421875 C 7.945312 -7.367188 7.878906 -7.289062 7.828125 -7.1875 C 7.773438 -7.09375 7.75 -6.960938 7.75 -6.796875 L 7.75 -0.96875 C 7.75 -0.800781 7.773438 -0.664062 7.828125 -0.5625 C 7.878906 -0.46875 7.945312 -0.394531 8.03125 -0.34375 C 8.113281 -0.289062 8.210938 -0.253906 8.328125 -0.234375 C 8.441406 -0.210938 8.5625 -0.203125 8.6875 -0.203125 L 8.6875 0 C 8.445312 0 8.25 0 8.09375 0 C 7.945312 -0.0078125 7.8125 -0.0195312 7.6875 -0.03125 C 7.570312 -0.0390625 7.460938 -0.046875 7.359375 -0.046875 C 7.253906 -0.0546875 7.144531 -0.0625 7.03125 -0.0625 C 6.894531 -0.0625 6.765625 -0.0546875 6.640625 -0.046875 C 6.523438 -0.046875 6.394531 -0.0390625 6.25 -0.03125 C 6.113281 -0.0195312 5.957031 -0.0078125 5.78125 0 C 5.613281 0 5.410156 0 5.171875 0 L 5.171875 -0.203125 C 5.296875 -0.203125 5.414062 -0.210938 5.53125 -0.234375 C 5.644531 -0.253906 5.742188 -0.289062 5.828125 -0.34375 C 5.910156 -0.394531 5.976562 -0.46875 6.03125 -0.5625 C 6.082031 -0.664062 6.109375 -0.800781 6.109375 -0.96875 L 6.109375 -3.8125 L 3 -3.8125 L 3 -0.96875 C 3 -0.800781 3.023438 -0.664062 3.078125 -0.5625 C 3.128906 -0.46875 3.195312 -0.394531 3.28125 -0.34375 C 3.363281 -0.289062 3.460938 -0.253906 3.578125 -0.234375 C 3.691406 -0.210938 3.8125 -0.203125 3.9375 -0.203125 L 3.9375 0 C 3.707031 0 3.503906 0 3.328125 0 C 3.148438 -0.0078125 2.988281 -0.0195312 2.84375 -0.03125 C 2.707031 -0.0390625 2.578125 -0.046875 2.453125 -0.046875 C 2.335938 -0.0546875 2.21875 -0.0625 2.09375 -0.0625 C 1.957031 -0.0625 1.835938 -0.0546875 1.734375 -0.046875 C 1.640625 -0.046875 1.535156 -0.0390625 1.421875 -0.03125 C 1.304688 -0.0195312 1.171875 -0.0078125 1.015625 0 C 0.859375 0 0.660156 0 0.421875 0 L 0.421875 -0.203125 C 0.546875 -0.203125 0.664062 -0.210938 0.78125 -0.234375 C 0.894531 -0.253906 0.992188 -0.289062 1.078125 -0.34375 C 1.160156 -0.394531 1.226562 -0.46875 1.28125 -0.5625 C 1.332031 -0.664062 1.359375 -0.800781 1.359375 -0.96875 L 1.359375 -6.796875 C 1.359375 -6.960938 1.332031 -7.09375 1.28125 -7.1875 C 1.226562 -7.289062 1.160156 -7.367188 1.078125 -7.421875 C 0.992188 -7.472656 0.894531 -7.507812 0.78125 -7.53125 C 0.664062 -7.550781 0.546875 -7.5625 0.421875 -7.5625 L 0.421875 -7.765625 C 0.660156 -7.765625 0.859375 -7.757812 1.015625 -7.75 C 1.171875 -7.75 1.304688 -7.742188 1.421875 -7.734375 C 1.535156 -7.734375 1.640625 -7.726562 1.734375 -7.71875 C 1.835938 -7.71875 1.957031 -7.71875 2.09375 -7.71875 C 2.21875 -7.71875 2.335938 -7.71875 2.453125 -7.71875 C 2.578125 -7.726562 2.707031 -7.734375 2.84375 -7.734375 C 2.988281 -7.742188 3.148438 -7.75 3.328125 -7.75 C 3.503906 -7.757812 3.707031 -7.765625 3.9375 -7.765625 L 3.9375 -7.5625 C 3.8125 -7.5625 3.691406 -7.550781 3.578125 -7.53125 C 3.460938 -7.507812 3.363281 -7.472656 3.28125 -7.421875 C 3.195312 -7.367188 3.128906 -7.289062 3.078125 -7.1875 C 3.023438 -7.09375 3 -6.960938 3 -6.796875 L 3 -4.140625 L 6.109375 -4.140625 L 6.109375 -6.796875 C 6.109375 -6.960938 6.082031 -7.09375 6.03125 -7.1875 C 5.976562 -7.289062 5.910156 -7.367188 5.828125 -7.421875 C 5.742188 -7.472656 5.644531 -7.507812 5.53125 -7.53125 C 5.414062 -7.550781 5.296875 -7.5625 5.171875 -7.5625 Z M 5.171875 -7.765625 "/></g></g></g><g fill="#ffffff" fill-opacity="1"><g transform="translate(17.697629, 19.1637)"><g><path d="M 0.0625 -7.765625 C 0.332031 -7.765625 0.5625 -7.757812 0.75 -7.75 C 0.9375 -7.75 1.101562 -7.742188 1.25 -7.734375 C 1.394531 -7.734375 1.523438 -7.726562 1.640625 -7.71875 C 1.753906 -7.71875 1.875 -7.71875 2 -7.71875 C 2.113281 -7.71875 2.21875 -7.71875 2.3125 -7.71875 C 2.40625 -7.726562 2.507812 -7.734375 2.625 -7.734375 C 2.75 -7.742188 2.894531 -7.75 3.0625 -7.75 C 3.226562 -7.757812 3.441406 -7.765625 3.703125 -7.765625 L 3.703125 -7.5625 C 3.597656 -7.5625 3.488281 -7.550781 3.375 -7.53125 C 3.269531 -7.519531 3.171875 -7.492188 3.078125 -7.453125 C 2.984375 -7.421875 2.90625 -7.363281 2.84375 -7.28125 C 2.78125 -7.195312 2.75 -7.082031 2.75 -6.9375 C 2.75 -6.863281 2.757812 -6.785156 2.78125 -6.703125 C 2.800781 -6.617188 2.820312 -6.546875 2.84375 -6.484375 L 4.296875 -2.140625 L 5.75 -6.234375 C 5.664062 -6.492188 5.582031 -6.710938 5.5 -6.890625 C 5.425781 -7.066406 5.34375 -7.203125 5.25 -7.296875 C 5.164062 -7.390625 5.066406 -7.457031 4.953125 -7.5 C 4.847656 -7.539062 4.710938 -7.5625 4.546875 -7.5625 L 4.546875 -7.765625 C 4.828125 -7.765625 5.050781 -7.757812 5.21875 -7.75 C 5.394531 -7.75 5.539062 -7.742188 5.65625 -7.734375 C 5.78125 -7.734375 5.882812 -7.726562 5.96875 -7.71875 C 6.0625 -7.71875 6.160156 -7.71875 6.265625 -7.71875 C 6.367188 -7.71875 6.472656 -7.71875 6.578125 -7.71875 C 6.691406 -7.726562 6.816406 -7.734375 6.953125 -7.734375 C 7.097656 -7.742188 7.269531 -7.75 7.46875 -7.75 C 7.675781 -7.757812 7.929688 -7.765625 8.234375 -7.765625 L 8.234375 -7.5625 C 8.085938 -7.5625 7.953125 -7.550781 7.828125 -7.53125 C 7.703125 -7.519531 7.59375 -7.484375 7.5 -7.421875 C 7.40625 -7.367188 7.332031 -7.289062 7.28125 -7.1875 C 7.226562 -7.09375 7.203125 -6.960938 7.203125 -6.796875 C 7.203125 -6.640625 7.222656 -6.476562 7.265625 -6.3125 C 7.316406 -6.144531 7.375 -5.960938 7.4375 -5.765625 L 8.65625 -2.109375 L 10.015625 -6.3125 C 10.085938 -6.519531 10.125 -6.695312 10.125 -6.84375 C 10.125 -7.113281 10.039062 -7.296875 9.875 -7.390625 C 9.707031 -7.484375 9.453125 -7.539062 9.109375 -7.5625 L 9.109375 -7.765625 C 9.296875 -7.765625 9.445312 -7.757812 9.5625 -7.75 C 9.675781 -7.75 9.773438 -7.75 9.859375 -7.75 C 9.941406 -7.75 10.015625 -7.742188 10.078125 -7.734375 C 10.148438 -7.734375 10.234375 -7.734375 10.328125 -7.734375 C 10.421875 -7.734375 10.503906 -7.734375 10.578125 -7.734375 C 10.660156 -7.742188 10.742188 -7.75 10.828125 -7.75 C 10.921875 -7.75 11.023438 -7.75 11.140625 -7.75 C 11.265625 -7.757812 11.414062 -7.765625 11.59375 -7.765625 L 11.59375 -7.5625 C 11.414062 -7.5625 11.265625 -7.539062 11.140625 -7.5 C 11.023438 -7.457031 10.925781 -7.394531 10.84375 -7.3125 C 10.757812 -7.238281 10.6875 -7.132812 10.625 -7 C 10.5625 -6.875 10.503906 -6.726562 10.453125 -6.5625 L 8.25 0.1875 L 7.84375 0.1875 L 5.921875 -5.703125 L 3.859375 0.1875 L 3.453125 0.1875 L 1.109375 -6.75 C 1.003906 -7.0625 0.863281 -7.273438 0.6875 -7.390625 C 0.507812 -7.503906 0.300781 -7.5625 0.0625 -7.5625 Z M 0.0625 -7.765625 "/></g></g></g><g fill="#ffffff" fill-opacity="1"><g transform="translate(28.613777, 19.1637)"><g><path d="M 4.421875 -3.046875 L 2.234375 -3.046875 L 1.515625 -1.09375 C 1.484375 -1.019531 1.457031 -0.953125 1.4375 -0.890625 C 1.425781 -0.828125 1.421875 -0.765625 1.421875 -0.703125 C 1.421875 -0.597656 1.441406 -0.507812 1.484375 -0.4375 C 1.535156 -0.375 1.59375 -0.328125 1.65625 -0.296875 C 1.726562 -0.265625 1.804688 -0.238281 1.890625 -0.21875 C 1.972656 -0.207031 2.054688 -0.203125 2.140625 -0.203125 L 2.140625 0 C 1.984375 0 1.847656 0 1.734375 0 C 1.617188 -0.0078125 1.519531 -0.015625 1.4375 -0.015625 C 1.351562 -0.015625 1.273438 -0.015625 1.203125 -0.015625 C 1.140625 -0.0234375 1.066406 -0.03125 0.984375 -0.03125 C 0.898438 -0.03125 0.828125 -0.0234375 0.765625 -0.015625 C 0.710938 -0.015625 0.648438 -0.015625 0.578125 -0.015625 C 0.503906 -0.015625 0.414062 -0.0078125 0.3125 0 C 0.21875 0 0.09375 0 -0.0625 0 L -0.0625 -0.203125 C 0.519531 -0.203125 0.921875 -0.492188 1.140625 -1.078125 L 3.703125 -7.921875 L 4.109375 -7.921875 L 6.828125 -1.09375 C 6.960938 -0.75 7.109375 -0.515625 7.265625 -0.390625 C 7.429688 -0.265625 7.65625 -0.203125 7.9375 -0.203125 L 7.9375 0 C 7.707031 0 7.507812 0 7.34375 0 C 7.175781 -0.0078125 7.023438 -0.015625 6.890625 -0.015625 C 6.765625 -0.015625 6.644531 -0.015625 6.53125 -0.015625 C 6.414062 -0.0234375 6.300781 -0.03125 6.1875 -0.03125 C 6.070312 -0.03125 5.960938 -0.0234375 5.859375 -0.015625 C 5.765625 -0.015625 5.65625 -0.015625 5.53125 -0.015625 C 5.414062 -0.015625 5.273438 -0.0078125 5.109375 0 C 4.941406 0 4.738281 0 4.5 0 L 4.5 -0.203125 C 4.582031 -0.203125 4.671875 -0.207031 4.765625 -0.21875 C 4.859375 -0.238281 4.9375 -0.265625 5 -0.296875 C 5.070312 -0.328125 5.128906 -0.375 5.171875 -0.4375 C 5.222656 -0.5 5.25 -0.582031 5.25 -0.6875 C 5.25 -0.769531 5.234375 -0.851562 5.203125 -0.9375 C 5.179688 -1.019531 5.15625 -1.097656 5.125 -1.171875 Z M 2.359375 -3.375 L 4.3125 -3.375 L 3.3125 -5.984375 Z M 2.359375 -3.375 "/></g></g></g><g fill="#ffffff" fill-opacity="1"><g transform="translate(35.755735, 19.1637)"><g><path d="M 0.546875 -0.203125 C 0.671875 -0.203125 0.785156 -0.210938 0.890625 -0.234375 C 1.003906 -0.253906 1.101562 -0.289062 1.1875 -0.34375 C 1.28125 -0.394531 1.347656 -0.46875 1.390625 -0.5625 C 1.441406 -0.664062 1.46875 -0.800781 1.46875 -0.96875 L 1.46875 -6.78125 L 1.21875 -7.109375 C 1.113281 -7.242188 0.992188 -7.351562 0.859375 -7.4375 C 0.734375 -7.519531 0.570312 -7.5625 0.375 -7.5625 L 0.375 -7.765625 C 0.507812 -7.765625 0.625 -7.757812 0.71875 -7.75 C 0.820312 -7.75 0.914062 -7.75 1 -7.75 C 1.082031 -7.75 1.15625 -7.742188 1.21875 -7.734375 C 1.289062 -7.734375 1.367188 -7.734375 1.453125 -7.734375 C 1.609375 -7.734375 1.800781 -7.738281 2.03125 -7.75 C 2.257812 -7.757812 2.46875 -7.765625 2.65625 -7.765625 L 7.140625 -2.28125 L 7.140625 -6.796875 C 7.140625 -6.960938 7.113281 -7.09375 7.0625 -7.1875 C 7.007812 -7.289062 6.941406 -7.367188 6.859375 -7.421875 C 6.773438 -7.472656 6.675781 -7.507812 6.5625 -7.53125 C 6.445312 -7.550781 6.332031 -7.5625 6.21875 -7.5625 L 6.21875 -7.765625 C 6.363281 -7.765625 6.484375 -7.757812 6.578125 -7.75 C 6.679688 -7.75 6.765625 -7.75 6.828125 -7.75 C 6.898438 -7.75 6.96875 -7.742188 7.03125 -7.734375 C 7.09375 -7.734375 7.164062 -7.734375 7.25 -7.734375 C 7.34375 -7.734375 7.425781 -7.734375 7.5 -7.734375 C 7.570312 -7.742188 7.644531 -7.75 7.71875 -7.75 C 7.800781 -7.75 7.894531 -7.75 8 -7.75 C 8.113281 -7.757812 8.25 -7.765625 8.40625 -7.765625 L 8.40625 -7.5625 C 8.28125 -7.5625 8.160156 -7.550781 8.046875 -7.53125 C 7.929688 -7.507812 7.832031 -7.472656 7.75 -7.421875 C 7.664062 -7.367188 7.597656 -7.289062 7.546875 -7.1875 C 7.492188 -7.09375 7.46875 -6.960938 7.46875 -6.796875 L 7.46875 0.140625 L 7.109375 0.140625 L 1.8125 -6.421875 L 1.8125 -0.96875 C 1.8125 -0.800781 1.835938 -0.664062 1.890625 -0.5625 C 1.941406 -0.46875 2.007812 -0.394531 2.09375 -0.34375 C 2.175781 -0.289062 2.269531 -0.253906 2.375 -0.234375 C 2.488281 -0.210938 2.609375 -0.203125 2.734375 -0.203125 L 2.734375 0 C 2.578125 0 2.445312 0 2.34375 0 C 2.238281 -0.0078125 2.140625 -0.015625 2.046875 -0.015625 C 1.960938 -0.015625 1.882812 -0.015625 1.8125 -0.015625 C 1.738281 -0.0234375 1.660156 -0.03125 1.578125 -0.03125 C 1.492188 -0.03125 1.421875 -0.0234375 1.359375 -0.015625 C 1.296875 -0.015625 1.226562 -0.015625 1.15625 -0.015625 C 1.09375 -0.015625 1.015625 -0.0078125 0.921875 0 C 0.828125 0 0.703125 0 0.546875 0 Z M 0.546875 -0.203125 "/></g></g></g><g fill="#ffffff" fill-opacity="1"><g transform="translate(43.791879, 19.1637)"><g><path d="M 0.75 -5.96875 L 0.828125 -7.765625 C 1.046875 -7.773438 1.304688 -7.78125 1.609375 -7.78125 C 1.921875 -7.789062 2.1875 -7.796875 2.40625 -7.796875 C 2.84375 -7.796875 3.25 -7.785156 3.625 -7.765625 C 4.007812 -7.753906 4.421875 -7.75 4.859375 -7.75 C 5.117188 -7.75 5.367188 -7.75 5.609375 -7.75 C 5.859375 -7.75 6.109375 -7.753906 6.359375 -7.765625 L 2.296875 -0.34375 C 2.722656 -0.34375 3.082031 -0.335938 3.375 -0.328125 C 3.664062 -0.328125 3.898438 -0.328125 4.078125 -0.328125 C 4.265625 -0.328125 4.394531 -0.328125 4.46875 -0.328125 C 4.550781 -0.328125 4.597656 -0.328125 4.609375 -0.328125 C 5.117188 -0.328125 5.503906 -0.46875 5.765625 -0.75 C 6.023438 -1.039062 6.1875 -1.445312 6.25 -1.96875 L 6.453125 -1.96875 L 6.34375 0 C 6.132812 0.0078125 5.914062 0.015625 5.6875 0.015625 C 5.46875 0.015625 5.25 0.015625 5.03125 0.015625 C 4.769531 0.015625 4.488281 0.0078125 4.1875 0 C 3.882812 0 3.582031 0 3.28125 0 C 2.976562 0 2.691406 0 2.421875 0 C 2.148438 -0.0078125 1.921875 -0.015625 1.734375 -0.015625 C 1.640625 -0.015625 1.523438 -0.015625 1.390625 -0.015625 C 1.265625 -0.015625 1.132812 -0.0078125 1 0 C 0.875 0 0.753906 0 0.640625 0 C 0.523438 0 0.425781 0 0.34375 0 L 4.421875 -7.4375 C 4.171875 -7.445312 3.960938 -7.453125 3.796875 -7.453125 C 3.628906 -7.460938 3.484375 -7.46875 3.359375 -7.46875 C 3.242188 -7.46875 3.140625 -7.46875 3.046875 -7.46875 C 2.953125 -7.46875 2.859375 -7.46875 2.765625 -7.46875 C 2.585938 -7.46875 2.457031 -7.46875 2.375 -7.46875 C 2.289062 -7.46875 2.191406 -7.460938 2.078125 -7.453125 C 1.910156 -7.441406 1.757812 -7.390625 1.625 -7.296875 C 1.488281 -7.210938 1.375 -7.101562 1.28125 -6.96875 C 1.195312 -6.832031 1.125 -6.675781 1.0625 -6.5 C 1 -6.332031 0.960938 -6.15625 0.953125 -5.96875 Z M 0.75 -5.96875 "/></g></g></g><g fill="#ffffff" fill-opacity="1"><g transform="translate(49.877053, 19.1637)"><g><path d="M 3.6875 -4.1875 C 4.03125 -4.1875 4.273438 -4.273438 4.421875 -4.453125 C 4.578125 -4.628906 4.65625 -4.878906 4.65625 -5.203125 L 4.859375 -5.203125 C 4.859375 -5.023438 4.859375 -4.875 4.859375 -4.75 C 4.859375 -4.625 4.851562 -4.515625 4.84375 -4.421875 C 4.84375 -4.335938 4.835938 -4.265625 4.828125 -4.203125 C 4.828125 -4.140625 4.828125 -4.078125 4.828125 -4.015625 C 4.828125 -3.953125 4.828125 -3.890625 4.828125 -3.828125 C 4.835938 -3.773438 4.84375 -3.707031 4.84375 -3.625 C 4.851562 -3.539062 4.859375 -3.4375 4.859375 -3.3125 C 4.859375 -3.195312 4.859375 -3.050781 4.859375 -2.875 L 4.65625 -2.875 C 4.65625 -3.164062 4.578125 -3.398438 4.421875 -3.578125 C 4.273438 -3.765625 4.03125 -3.859375 3.6875 -3.859375 L 3 -3.859375 L 3 -1.515625 C 3 -1.242188 3.019531 -1.023438 3.0625 -0.859375 C 3.101562 -0.691406 3.175781 -0.566406 3.28125 -0.484375 C 3.394531 -0.398438 3.550781 -0.347656 3.75 -0.328125 C 3.945312 -0.304688 4.207031 -0.296875 4.53125 -0.296875 C 4.8125 -0.296875 5.066406 -0.3125 5.296875 -0.34375 C 5.535156 -0.375 5.742188 -0.441406 5.921875 -0.546875 C 6.109375 -0.660156 6.257812 -0.816406 6.375 -1.015625 C 6.488281 -1.222656 6.5625 -1.5 6.59375 -1.84375 L 6.8125 -1.84375 L 6.71875 0 C 6.375 0.0078125 6.054688 0.015625 5.765625 0.015625 C 5.484375 0.015625 5.179688 0.015625 4.859375 0.015625 C 4.203125 0.015625 3.648438 0.0078125 3.203125 0 C 2.765625 -0.0195312 2.425781 -0.03125 2.1875 -0.03125 C 2.0625 -0.03125 1.941406 -0.0234375 1.828125 -0.015625 C 1.710938 -0.015625 1.59375 -0.015625 1.46875 -0.015625 C 1.34375 -0.015625 1.195312 -0.0078125 1.03125 0 C 0.863281 0 0.660156 0 0.421875 0 L 0.421875 -0.203125 C 0.546875 -0.203125 0.664062 -0.210938 0.78125 -0.234375 C 0.894531 -0.253906 0.992188 -0.289062 1.078125 -0.34375 C 1.160156 -0.394531 1.226562 -0.46875 1.28125 -0.5625 C 1.332031 -0.664062 1.359375 -0.800781 1.359375 -0.96875 L 1.359375 -6.796875 C 1.359375 -6.960938 1.332031 -7.09375 1.28125 -7.1875 C 1.226562 -7.289062 1.160156 -7.367188 1.078125 -7.421875 C 0.992188 -7.472656 0.894531 -7.507812 0.78125 -7.53125 C 0.664062 -7.550781 0.546875 -7.5625 0.421875 -7.5625 L 0.421875 -7.765625 C 0.660156 -7.765625 0.859375 -7.757812 1.015625 -7.75 C 1.179688 -7.75 1.328125 -7.75 1.453125 -7.75 C 1.578125 -7.75 1.691406 -7.742188 1.796875 -7.734375 C 1.910156 -7.734375 2.023438 -7.734375 2.140625 -7.734375 C 2.410156 -7.734375 2.75 -7.742188 3.15625 -7.765625 C 3.570312 -7.785156 4.015625 -7.796875 4.484375 -7.796875 C 4.785156 -7.796875 5.066406 -7.789062 5.328125 -7.78125 C 5.585938 -7.78125 5.867188 -7.773438 6.171875 -7.765625 L 6.25 -6.03125 L 6.03125 -6.03125 C 6.007812 -6.332031 5.953125 -6.578125 5.859375 -6.765625 C 5.765625 -6.953125 5.632812 -7.097656 5.46875 -7.203125 C 5.300781 -7.316406 5.109375 -7.390625 4.890625 -7.421875 C 4.671875 -7.460938 4.425781 -7.484375 4.15625 -7.484375 C 4.019531 -7.484375 3.863281 -7.476562 3.6875 -7.46875 C 3.519531 -7.457031 3.382812 -7.445312 3.28125 -7.4375 C 3.09375 -7.40625 3 -7.296875 3 -7.109375 L 3 -4.1875 Z M 3.6875 -4.1875 "/></g></g></g><g fill="#ffffff" fill-opacity="1"><g transform="translate(56.240939, 19.1637)"><g><path d="M 4.796875 0.015625 C 4.265625 0.015625 3.769531 0.0078125 3.3125 0 C 2.863281 -0.0195312 2.503906 -0.03125 2.234375 -0.03125 C 2.097656 -0.03125 1.972656 -0.0234375 1.859375 -0.015625 C 1.742188 -0.015625 1.617188 -0.015625 1.484375 -0.015625 C 1.347656 -0.015625 1.195312 -0.0078125 1.03125 0 C 0.863281 0 0.660156 0 0.421875 0 L 0.421875 -0.203125 C 0.546875 -0.203125 0.664062 -0.210938 0.78125 -0.234375 C 0.894531 -0.253906 0.992188 -0.289062 1.078125 -0.34375 C 1.160156 -0.394531 1.226562 -0.46875 1.28125 -0.5625 C 1.332031 -0.664062 1.359375 -0.800781 1.359375 -0.96875 L 1.359375 -6.796875 C 1.359375 -6.960938 1.332031 -7.09375 1.28125 -7.1875 C 1.226562 -7.289062 1.160156 -7.367188 1.078125 -7.421875 C 0.992188 -7.472656 0.894531 -7.507812 0.78125 -7.53125 C 0.664062 -7.550781 0.546875 -7.5625 0.421875 -7.5625 L 0.421875 -7.765625 C 0.660156 -7.765625 0.859375 -7.757812 1.015625 -7.75 C 1.179688 -7.75 1.328125 -7.742188 1.453125 -7.734375 C 1.585938 -7.734375 1.707031 -7.726562 1.8125 -7.71875 C 1.925781 -7.71875 2.050781 -7.71875 2.1875 -7.71875 C 2.3125 -7.71875 2.425781 -7.71875 2.53125 -7.71875 C 2.644531 -7.726562 2.765625 -7.734375 2.890625 -7.734375 C 3.023438 -7.742188 3.175781 -7.75 3.34375 -7.75 C 3.507812 -7.757812 3.707031 -7.765625 3.9375 -7.765625 L 3.9375 -7.5625 C 3.8125 -7.5625 3.691406 -7.550781 3.578125 -7.53125 C 3.460938 -7.507812 3.363281 -7.472656 3.28125 -7.421875 C 3.195312 -7.367188 3.128906 -7.289062 3.078125 -7.1875 C 3.023438 -7.09375 3 -6.960938 3 -6.796875 L 3 -1.3125 C 3 -1.070312 3.035156 -0.882812 3.109375 -0.75 C 3.191406 -0.613281 3.300781 -0.507812 3.4375 -0.4375 C 3.570312 -0.375 3.738281 -0.332031 3.9375 -0.3125 C 4.132812 -0.300781 4.359375 -0.296875 4.609375 -0.296875 C 5.171875 -0.296875 5.613281 -0.410156 5.9375 -0.640625 C 6.269531 -0.867188 6.476562 -1.289062 6.5625 -1.90625 L 6.765625 -1.90625 L 6.65625 0 C 6.363281 0.0078125 6.050781 0.015625 5.71875 0.015625 C 5.394531 0.015625 5.085938 0.015625 4.796875 0.015625 Z M 4.796875 0.015625 "/></g></g></g><g fill="#ffffff" fill-opacity="1"><g transform="translate(62.442245, 19.1637)"><g><path d="M 0.546875 -0.203125 C 0.671875 -0.203125 0.785156 -0.210938 0.890625 -0.234375 C 1.003906 -0.253906 1.101562 -0.289062 1.1875 -0.34375 C 1.28125 -0.394531 1.347656 -0.46875 1.390625 -0.5625 C 1.441406 -0.664062 1.46875 -0.800781 1.46875 -0.96875 L 1.46875 -6.78125 L 1.21875 -7.109375 C 1.113281 -7.242188 0.992188 -7.351562 0.859375 -7.4375 C 0.734375 -7.519531 0.570312 -7.5625 0.375 -7.5625 L 0.375 -7.765625 C 0.507812 -7.765625 0.625 -7.757812 0.71875 -7.75 C 0.820312 -7.75 0.914062 -7.75 1 -7.75 C 1.082031 -7.75 1.15625 -7.742188 1.21875 -7.734375 C 1.289062 -7.734375 1.367188 -7.734375 1.453125 -7.734375 C 1.609375 -7.734375 1.800781 -7.738281 2.03125 -7.75 C 2.257812 -7.757812 2.46875 -7.765625 2.65625 -7.765625 L 7.140625 -2.28125 L 7.140625 -6.796875 C 7.140625 -6.960938 7.113281 -7.09375 7.0625 -7.1875 C 7.007812 -7.289062 6.941406 -7.367188 6.859375 -7.421875 C 6.773438 -7.472656 6.675781 -7.507812 6.5625 -7.53125 C 6.445312 -7.550781 6.332031 -7.5625 6.21875 -7.5625 L 6.21875 -7.765625 C 6.363281 -7.765625 6.484375 -7.757812 6.578125 -7.75 C 6.679688 -7.75 6.765625 -7.75 6.828125 -7.75 C 6.898438 -7.75 6.96875 -7.742188 7.03125 -7.734375 C 7.09375 -7.734375 7.164062 -7.734375 7.25 -7.734375 C 7.34375 -7.734375 7.425781 -7.734375 7.5 -7.734375 C 7.570312 -7.742188 7.644531 -7.75 7.71875 -7.75 C 7.800781 -7.75 7.894531 -7.75 8 -7.75 C 8.113281 -7.757812 8.25 -7.765625 8.40625 -7.765625 L 8.40625 -7.5625 C 8.28125 -7.5625 8.160156 -7.550781 8.046875 -7.53125 C 7.929688 -7.507812 7.832031 -7.472656 7.75 -7.421875 C 7.664062 -7.367188 7.597656 -7.289062 7.546875 -7.1875 C 7.492188 -7.09375 7.46875 -6.960938 7.46875 -6.796875 L 7.46875 0.140625 L 7.109375 0.140625 L 1.8125 -6.421875 L 1.8125 -0.96875 C 1.8125 -0.800781 1.835938 -0.664062 1.890625 -0.5625 C 1.941406 -0.46875 2.007812 -0.394531 2.09375 -0.34375 C 2.175781 -0.289062 2.269531 -0.253906 2.375 -0.234375 C 2.488281 -0.210938 2.609375 -0.203125 2.734375 -0.203125 L 2.734375 0 C 2.578125 0 2.445312 0 2.34375 0 C 2.238281 -0.0078125 2.140625 -0.015625 2.046875 -0.015625 C 1.960938 -0.015625 1.882812 -0.015625 1.8125 -0.015625 C 1.738281 -0.0234375 1.660156 -0.03125 1.578125 -0.03125 C 1.492188 -0.03125 1.421875 -0.0234375 1.359375 -0.015625 C 1.296875 -0.015625 1.226562 -0.015625 1.15625 -0.015625 C 1.09375 -0.015625 1.015625 -0.0078125 0.921875 0 C 0.828125 0 0.703125 0 0.546875 0 Z M 0.546875 -0.203125 "/></g></g></g><g fill="#ffffff" fill-opacity="1"><g transform="translate(70.47839, 19.1637)"><g><path d="M 7.421875 -2.78125 C 7.421875 -2.257812 7.351562 -1.8125 7.21875 -1.4375 C 7.082031 -1.070312 6.882812 -0.773438 6.625 -0.546875 C 6.375 -0.316406 6.070312 -0.144531 5.71875 -0.03125 C 5.375 0.0703125 4.984375 0.125 4.546875 0.125 C 4.171875 0.125 3.785156 0.09375 3.390625 0.03125 C 3.003906 -0.03125 2.648438 -0.160156 2.328125 -0.359375 C 2.003906 -0.566406 1.742188 -0.859375 1.546875 -1.234375 C 1.347656 -1.609375 1.25 -2.109375 1.25 -2.734375 L 1.25 -6.796875 C 1.25 -6.960938 1.222656 -7.09375 1.171875 -7.1875 C 1.117188 -7.289062 1.046875 -7.367188 0.953125 -7.421875 C 0.867188 -7.472656 0.769531 -7.507812 0.65625 -7.53125 C 0.550781 -7.550781 0.4375 -7.5625 0.3125 -7.5625 L 0.3125 -7.765625 C 0.539062 -7.765625 0.726562 -7.757812 0.875 -7.75 C 1.03125 -7.75 1.164062 -7.742188 1.28125 -7.734375 C 1.40625 -7.734375 1.515625 -7.726562 1.609375 -7.71875 C 1.703125 -7.71875 1.816406 -7.71875 1.953125 -7.71875 C 2.078125 -7.71875 2.195312 -7.71875 2.3125 -7.71875 C 2.4375 -7.726562 2.570312 -7.734375 2.71875 -7.734375 C 2.875 -7.742188 3.035156 -7.75 3.203125 -7.75 C 3.378906 -7.757812 3.582031 -7.765625 3.8125 -7.765625 L 3.8125 -7.5625 C 3.695312 -7.5625 3.582031 -7.550781 3.46875 -7.53125 C 3.351562 -7.507812 3.253906 -7.472656 3.171875 -7.421875 C 3.085938 -7.367188 3.019531 -7.289062 2.96875 -7.1875 C 2.914062 -7.09375 2.890625 -6.960938 2.890625 -6.796875 L 2.890625 -2.734375 C 2.890625 -2.335938 2.921875 -1.988281 2.984375 -1.6875 C 3.046875 -1.382812 3.148438 -1.128906 3.296875 -0.921875 C 3.453125 -0.710938 3.660156 -0.554688 3.921875 -0.453125 C 4.179688 -0.347656 4.507812 -0.296875 4.90625 -0.296875 C 5.613281 -0.296875 6.148438 -0.515625 6.515625 -0.953125 C 6.890625 -1.390625 7.078125 -1.984375 7.078125 -2.734375 L 7.078125 -6.796875 C 7.078125 -6.960938 7.050781 -7.09375 7 -7.1875 C 6.957031 -7.289062 6.890625 -7.367188 6.796875 -7.421875 C 6.710938 -7.472656 6.613281 -7.507812 6.5 -7.53125 C 6.394531 -7.550781 6.28125 -7.5625 6.15625 -7.5625 L 6.15625 -7.765625 C 6.3125 -7.765625 6.4375 -7.757812 6.53125 -7.75 C 6.632812 -7.75 6.722656 -7.75 6.796875 -7.75 C 6.878906 -7.75 6.953125 -7.742188 7.015625 -7.734375 C 7.085938 -7.734375 7.164062 -7.734375 7.25 -7.734375 C 7.34375 -7.734375 7.421875 -7.734375 7.484375 -7.734375 C 7.546875 -7.742188 7.613281 -7.75 7.6875 -7.75 C 7.769531 -7.75 7.859375 -7.75 7.953125 -7.75 C 8.054688 -7.757812 8.1875 -7.765625 8.34375 -7.765625 L 8.34375 -7.5625 C 8.21875 -7.5625 8.097656 -7.550781 7.984375 -7.53125 C 7.878906 -7.507812 7.78125 -7.472656 7.6875 -7.421875 C 7.601562 -7.367188 7.535156 -7.289062 7.484375 -7.1875 C 7.441406 -7.09375 7.421875 -6.960938 7.421875 -6.796875 Z M 7.421875 -2.78125 "/></g></g></g><g fill="#ffffff" fill-opacity="1"><g transform="translate(78.317113, 19.1637)"><g><path d="M 2.015625 -0.203125 C 2.128906 -0.203125 2.242188 -0.210938 2.359375 -0.234375 C 2.472656 -0.253906 2.570312 -0.289062 2.65625 -0.34375 C 2.738281 -0.394531 2.804688 -0.46875 2.859375 -0.5625 C 2.910156 -0.664062 2.9375 -0.800781 2.9375 -0.96875 L 2.9375 -7.453125 C 2.550781 -7.460938 2.285156 -7.46875 2.140625 -7.46875 C 1.992188 -7.476562 1.90625 -7.484375 1.875 -7.484375 C 1.414062 -7.472656 1.066406 -7.320312 0.828125 -7.03125 C 0.597656 -6.738281 0.46875 -6.375 0.4375 -5.9375 L 0.234375 -5.9375 L 0.296875 -7.796875 C 0.472656 -7.796875 0.644531 -7.796875 0.8125 -7.796875 C 0.976562 -7.796875 1.128906 -7.796875 1.265625 -7.796875 C 1.578125 -7.796875 1.851562 -7.796875 2.09375 -7.796875 C 2.332031 -7.796875 2.546875 -7.789062 2.734375 -7.78125 C 2.929688 -7.78125 3.109375 -7.773438 3.265625 -7.765625 C 3.421875 -7.765625 3.570312 -7.765625 3.71875 -7.765625 C 3.863281 -7.765625 4.015625 -7.765625 4.171875 -7.765625 C 4.328125 -7.773438 4.503906 -7.78125 4.703125 -7.78125 C 4.898438 -7.789062 5.117188 -7.796875 5.359375 -7.796875 C 5.609375 -7.796875 5.894531 -7.796875 6.21875 -7.796875 C 6.363281 -7.796875 6.519531 -7.796875 6.6875 -7.796875 C 6.851562 -7.796875 7.023438 -7.796875 7.203125 -7.796875 L 7.296875 -5.9375 L 7.078125 -5.9375 C 7.066406 -6.125 7.03125 -6.3125 6.96875 -6.5 C 6.90625 -6.6875 6.8125 -6.851562 6.6875 -7 C 6.570312 -7.144531 6.425781 -7.265625 6.25 -7.359375 C 6.070312 -7.453125 5.867188 -7.5 5.640625 -7.5 C 5.617188 -7.5 5.59375 -7.5 5.5625 -7.5 C 5.539062 -7.5 5.492188 -7.492188 5.421875 -7.484375 C 5.347656 -7.484375 5.242188 -7.476562 5.109375 -7.46875 C 4.972656 -7.46875 4.796875 -7.460938 4.578125 -7.453125 L 4.578125 -0.96875 C 4.578125 -0.800781 4.601562 -0.664062 4.65625 -0.5625 C 4.707031 -0.46875 4.773438 -0.394531 4.859375 -0.34375 C 4.941406 -0.289062 5.039062 -0.253906 5.15625 -0.234375 C 5.269531 -0.210938 5.390625 -0.203125 5.515625 -0.203125 L 5.515625 0 C 5.285156 0 5.085938 0 4.921875 0 C 4.753906 -0.0078125 4.601562 -0.015625 4.46875 -0.015625 C 4.34375 -0.0234375 4.222656 -0.03125 4.109375 -0.03125 C 3.992188 -0.0390625 3.875 -0.046875 3.75 -0.046875 C 3.613281 -0.046875 3.492188 -0.0390625 3.390625 -0.03125 C 3.285156 -0.03125 3.164062 -0.0234375 3.03125 -0.015625 C 2.90625 -0.015625 2.757812 -0.0078125 2.59375 0 C 2.4375 0 2.242188 0 2.015625 0 Z M 2.015625 -0.203125 "/></g></g></g><g fill="#ffffff" fill-opacity="1"><g transform="translate(85.099066, 19.1637)"><g><path d="M 5.046875 -7.75 C 5.046875 -7.625 5.039062 -7.488281 5.03125 -7.34375 C 5.03125 -7.195312 5.03125 -7.054688 5.03125 -6.921875 C 5.03125 -6.847656 5.035156 -6.753906 5.046875 -6.640625 C 5.054688 -6.535156 5.0625 -6.425781 5.0625 -6.3125 C 5.070312 -6.195312 5.078125 -6.082031 5.078125 -5.96875 C 5.085938 -5.851562 5.09375 -5.753906 5.09375 -5.671875 L 4.859375 -5.671875 C 4.835938 -5.898438 4.78125 -6.128906 4.6875 -6.359375 C 4.59375 -6.585938 4.460938 -6.789062 4.296875 -6.96875 C 4.128906 -7.15625 3.9375 -7.304688 3.71875 -7.421875 C 3.507812 -7.546875 3.28125 -7.609375 3.03125 -7.609375 C 2.820312 -7.609375 2.644531 -7.570312 2.5 -7.5 C 2.351562 -7.425781 2.234375 -7.332031 2.140625 -7.21875 C 2.046875 -7.113281 1.976562 -6.992188 1.9375 -6.859375 C 1.894531 -6.734375 1.875 -6.609375 1.875 -6.484375 C 1.875 -6.222656 1.941406 -6 2.078125 -5.8125 C 2.210938 -5.632812 2.378906 -5.472656 2.578125 -5.328125 C 2.773438 -5.191406 2.988281 -5.070312 3.21875 -4.96875 C 3.457031 -4.863281 3.675781 -4.765625 3.875 -4.671875 C 4.132812 -4.546875 4.375 -4.410156 4.59375 -4.265625 C 4.8125 -4.117188 5 -3.953125 5.15625 -3.765625 C 5.3125 -3.578125 5.4375 -3.359375 5.53125 -3.109375 C 5.625 -2.867188 5.671875 -2.585938 5.671875 -2.265625 C 5.671875 -1.910156 5.601562 -1.582031 5.46875 -1.28125 C 5.332031 -0.988281 5.144531 -0.734375 4.90625 -0.515625 C 4.675781 -0.304688 4.394531 -0.144531 4.0625 -0.03125 C 3.738281 0.0820312 3.382812 0.140625 3 0.140625 C 2.613281 0.140625 2.265625 0.0820312 1.953125 -0.03125 C 1.648438 -0.15625 1.351562 -0.328125 1.0625 -0.546875 L 0.796875 -0.09375 L 0.578125 -0.09375 C 0.578125 -0.332031 0.582031 -0.519531 0.59375 -0.65625 C 0.601562 -0.800781 0.609375 -0.953125 0.609375 -1.109375 C 0.609375 -1.265625 0.601562 -1.460938 0.59375 -1.703125 C 0.582031 -1.953125 0.578125 -2.203125 0.578125 -2.453125 L 0.8125 -2.453125 C 0.820312 -2.179688 0.878906 -1.910156 0.984375 -1.640625 C 1.097656 -1.367188 1.242188 -1.125 1.421875 -0.90625 C 1.609375 -0.6875 1.828125 -0.507812 2.078125 -0.375 C 2.335938 -0.25 2.628906 -0.1875 2.953125 -0.1875 C 3.222656 -0.1875 3.453125 -0.222656 3.640625 -0.296875 C 3.835938 -0.378906 4 -0.484375 4.125 -0.609375 C 4.25 -0.742188 4.34375 -0.890625 4.40625 -1.046875 C 4.46875 -1.210938 4.5 -1.382812 4.5 -1.5625 C 4.5 -1.789062 4.453125 -1.988281 4.359375 -2.15625 C 4.265625 -2.320312 4.140625 -2.46875 3.984375 -2.59375 C 3.835938 -2.726562 3.664062 -2.847656 3.46875 -2.953125 C 3.28125 -3.054688 3.078125 -3.160156 2.859375 -3.265625 C 2.609375 -3.378906 2.359375 -3.5 2.109375 -3.625 C 1.859375 -3.75 1.628906 -3.90625 1.421875 -4.09375 C 1.222656 -4.28125 1.0625 -4.503906 0.9375 -4.765625 C 0.8125 -5.035156 0.75 -5.367188 0.75 -5.765625 C 0.75 -6.078125 0.8125 -6.363281 0.9375 -6.625 C 1.0625 -6.894531 1.226562 -7.125 1.4375 -7.3125 C 1.644531 -7.507812 1.878906 -7.660156 2.140625 -7.765625 C 2.410156 -7.867188 2.691406 -7.921875 2.984375 -7.921875 C 3.273438 -7.921875 3.554688 -7.867188 3.828125 -7.765625 C 4.097656 -7.660156 4.351562 -7.507812 4.59375 -7.3125 L 4.84375 -7.75 Z M 5.046875 -7.75 "/></g></g></g></svg>